<?xml version="1.0" encoding="UTF-8"?>
<svg version="1.1" xmlns="http://www.w3.org/2000/svg" width="281" height="155">
<path d="M0 0 C3.19520044 2.66266704 4.81272287 4.10094419 5.22265625 8.2578125 C4.96374205 12.08469069 4.44960925 14.40052101 2.125 17.5 C0 19 0 19 -3 20 C-2.31292969 19.96519531 -1.62585938 19.93039063 -0.91796875 19.89453125 C-0.01691406 19.86746094 0.88414062 19.84039062 1.8125 19.8125 C3.15248047 19.76029297 3.15248047 19.76029297 4.51953125 19.70703125 C7 20 7 20 8.82421875 21.07421875 C10.61911025 24.01402443 10.10935881 26.58595462 10 30 C10.24618456 33.15594934 10.625171 36.29450821 11 39.4375 C11.09539062 40.26443359 11.19078125 41.09136719 11.2890625 41.94335938 C11.52250666 43.96265139 11.76075696 45.98138682 12 48 C11.01 47.67 10.02 47.34 9 47 C8.34 41.06 7.68 35.12 7 29 C5.02 29.66 3.04 30.32 1 31 C-4.84152035 31.95762629 -9.97625806 32 -16 32 C-16 37.94 -16 43.88 -16 50 C-16.66 50 -17.32 50 -18 50 C-20.32019539 45.35960922 -19.41958392 38.81895112 -18.0625 33.9375 C-17 31 -17 31 -16 30 C-14.46730105 29.7154703 -12.92431043 29.48582066 -11.37890625 29.28125 C-10.44369141 29.15363281 -9.50847656 29.02601562 -8.54492188 28.89453125 C-7.56072266 28.76433594 -6.57652344 28.63414063 -5.5625 28.5 C-3.62587196 28.24280154 -1.6896484 27.98253317 0.24609375 27.71875 C1.54051392 27.54762695 1.54051392 27.54762695 2.86108398 27.37304688 C5.043472 27.09780004 5.043472 27.09780004 7 26 C7 25.01 7 24.02 7 23 C1.57435402 22.80678606 -3.85150879 22.62822046 -9.27807617 22.46289062 C-11.12195584 22.40468837 -12.96571633 22.34256738 -14.80932617 22.27636719 C-17.46771528 22.18160419 -20.12622192 22.10119738 -22.78515625 22.0234375 C-23.60210464 21.99124115 -24.41905304 21.9590448 -25.26075745 21.9258728 C-30.74030671 21.7842155 -36.45380824 21.80500711 -40.8125 25.5625 C-44.18838651 32.49195125 -44.46202902 40.42593495 -45 48 C-45.66 48 -46.32 48 -47 48 C-47.49089087 39.8184855 -47.0645914 29.63192071 -41.63671875 23.19921875 C-37.30020223 19.58224275 -34.59027853 18.74911492 -28.921875 18.8046875 C-27.18164062 18.81435547 -27.18164062 18.81435547 -25.40625 18.82421875 C-24.1996875 18.84097656 -22.993125 18.85773437 -21.75 18.875 C-19.91695312 18.88853516 -19.91695312 18.88853516 -18.046875 18.90234375 C-15.03105218 18.92590487 -12.01562508 18.95880294 -9 19 C-9.80566406 18.236875 -10.61132812 17.47375 -11.44140625 16.6875 C-14.37124688 13.61004908 -14.91256882 12.19669656 -15 8 C-14.03603828 4.54580384 -12.8108456 2.24867648 -10 0 C-6.12329273 -1.29223576 -3.9545896 -1.02273869 0 0 Z M-9.9375 2.4375 C-12.42152942 5.52371837 -12.68849662 7.22278458 -12.4140625 11.09375 C-12.06801535 13.20445786 -12.06801535 13.20445786 -10.4375 15.5 C-7.08965651 17.56021138 -4.85985753 17.49125459 -1 17 C1.01951062 16.06402685 1.01951062 16.06402685 2 14 C2.98586223 10.19738855 3.29822018 7.85738301 2 4.125 C0.05974282 1.7166157 0.05974282 1.7166157 -3.375 0.9375 C-7.00222723 0.74379356 -7.00222723 0.74379356 -9.9375 2.4375 Z " fill="#EBF7F9" transform="translate(159,24)"/>
<path d="M0 0 C7.59 0 15.18 0 23 0 C21.9275 2.18625 20.855 4.3725 19.75 6.625 C19.2564502 7.63941162 19.2564502 7.63941162 18.75292969 8.67431641 C16.77068551 12.67490908 14.54934161 16.3339114 12 20 C7.93629536 16.52205459 6.00764213 12.48093393 3.75 7.75 C2.5125 5.1925 1.275 2.635 0 0 Z " fill="#A8C5D3" transform="translate(130,128)"/>
<path d="M0 0 C0.66 1.32 1.32 2.64 2 4 C3.98 3.67 5.96 3.34 8 3 C8.46174018 7.57617505 7.21158892 9.6809077 4.5 13.3125 C3.52546875 14.63701172 3.52546875 14.63701172 2.53125 15.98828125 C1.77328125 16.98408203 1.77328125 16.98408203 1 18 C0.01 17.67 -0.98 17.34 -2 17 C-1.67 16.195625 -1.34 15.39125 -1 14.5625 C0.06059041 12.30318875 0.06059041 12.30318875 0 11 C-1.32 11 -2.64 11 -4 11 C-4.33 10.34 -4.66 9.68 -5 9 C-5.6496875 9.99 -5.6496875 9.99 -6.3125 11 C-6.869375 11.66 -7.42625 12.32 -8 13 C-8.99 13 -9.98 13 -11 13 C-10.47164489 8.92309777 -9.35324283 6.74382266 -6.625 3.6875 C-6.01914062 2.99011719 -5.41328125 2.29273437 -4.7890625 1.57421875 C-3 0 -3 0 0 0 Z " fill="#F4F0E9" transform="translate(54,78)"/>
<path d="M0 0 C0.99 0 1.98 0 3 0 C3.33 1.98 3.66 3.96 4 6 C4.66 5.67 5.32 5.34 6 5 C6.99 5.66 7.98 6.32 9 7 C9.99 4.69 10.98 2.38 12 0 C13.32 0.33 14.64 0.66 16 1 C14.02 5.95 12.04 10.9 10 16 C8.68 16 7.36 16 6 16 C5.34 15.01 4.68 14.02 4 13 C3.566875 13.495 3.13375 13.99 2.6875 14.5 C1 16 1 16 -2 16 C-1.85890014 13.89551062 -1.71195825 11.7914123 -1.5625 9.6875 C-1.48128906 8.51574219 -1.40007812 7.34398438 -1.31640625 6.13671875 C-1 3 -1 3 0 0 Z " fill="#F6F1EB" transform="translate(154,91)"/>
<path d="M0 0 C0.99 0 1.98 0 3 0 C2.88487847 1.72985242 2.75744323 3.45888751 2.625 5.1875 C2.55539063 6.15042969 2.48578125 7.11335938 2.4140625 8.10546875 C1.99784147 11.01508938 1.20125904 13.32890774 0 16 C-0.99 15.67 -1.98 15.34 -3 15 C-3 14.34 -3 13.68 -3 13 C-3.598125 13.66 -4.19625 14.32 -4.8125 15 C-7 17 -7 17 -10 17 C-9.85936865 14.70800823 -9.71234057 12.41640814 -9.5625 10.125 C-9.48128906 8.84882812 -9.40007812 7.57265625 -9.31640625 6.2578125 C-9 3 -9 3 -8 1 C-6.0625 1.8125 -6.0625 1.8125 -4 3 C-3.67 3.99 -3.34 4.98 -3 6 C-2.34 6 -1.68 6 -1 6 C-1.020625 5.195625 -1.04125 4.39125 -1.0625 3.5625 C-1 1 -1 1 0 0 Z " fill="#F5F0EA" transform="translate(211,84)"/>
<path d="M0 0 C3 2 3 2 3.6875 4.625 C3.790625 5.40875 3.89375 6.1925 4 7 C4.6496875 5.7625 4.6496875 5.7625 5.3125 4.5 C5.869375 3.675 6.42625 2.85 7 2 C7.99 2 8.98 2 10 2 C9.31113213 5.38891322 8.01283514 8.18011613 6.4375 11.25 C5.98246094 12.14203125 5.52742188 13.0340625 5.05859375 13.953125 C4.70925781 14.62859375 4.35992187 15.3040625 4 16 C3.01 15.67 2.02 15.34 1 15 C1 14.34 1 13.68 1 13 C0.34 12.67 -0.32 12.34 -1 12 C-1 11.34 -1 10.68 -1 10 C-1.66 11.65 -2.32 13.3 -3 15 C-4.32 14.67 -5.64 14.34 -7 14 C-6.40362909 12.41371392 -5.79754075 10.83107941 -5.1875 9.25 C-4.68283203 7.92742187 -4.68283203 7.92742187 -4.16796875 6.578125 C-3.03153178 4.06960192 -1.73457073 2.12720995 0 0 Z " fill="#F4F0EA" transform="translate(111,90)"/>
<path d="M0 0 C3.95364129 2.46170118 5.67678008 3.9542885 7.0625 8.4375 C6.99118687 12.50234831 6.20649268 14.61145766 4 18 C0.31502204 20.45665197 -2.71971786 20.70086491 -7 20 C-9.8100346 18.20636089 -11.50940468 16.98119065 -13 14 C-13.43103448 6.24137931 -13.43103448 6.24137931 -11 3 C-7.34085646 0.15399947 -4.60021906 -0.75105617 0 0 Z M-8.3125 3.625 C-10.37096501 6.5220989 -10.8524997 8.45999272 -11 12 C-10.20609163 14.59824558 -9.44719573 15.6521811 -7.3125 17.3125 C-3.93318526 18.31716114 -1.39233233 17.8166726 2 17 C4.4567061 13.31494085 4.68887481 10.27963474 4 6 C2.54002013 3.37283423 2.54002013 3.37283423 0 2 C-3.64902278 1.39182954 -5.26828585 1.48582249 -8.3125 3.625 Z " fill="#D3ECF8" transform="translate(135,20)"/>
<path d="M0 0 C3.19520044 2.66266704 4.81272287 4.10094419 5.22265625 8.2578125 C4.97826616 11.8700172 4.335016 14.427681 2.5 17.5625 C-1.29732956 19.74596449 -4.73476247 19.87433568 -9 19 C-12.4153137 16.58081946 -13.69248754 14.98403987 -14.9375 11 C-15.02231786 6.92874256 -14.14281536 4.39125348 -11.5625 1.25 C-7.81878776 -1.7449698 -4.39596874 -1.13688847 0 0 Z M-9.9375 2.4375 C-12.42152942 5.52371837 -12.68849662 7.22278458 -12.4140625 11.09375 C-12.06801535 13.20445786 -12.06801535 13.20445786 -10.4375 15.5 C-7.08965651 17.56021138 -4.85985753 17.49125459 -1 17 C1.01951062 16.06402685 1.01951062 16.06402685 2 14 C2.98586223 10.19738855 3.29822018 7.85738301 2 4.125 C0.05974282 1.7166157 0.05974282 1.7166157 -3.375 0.9375 C-7.00222723 0.74379356 -7.00222723 0.74379356 -9.9375 2.4375 Z " fill="#DED0CC" transform="translate(159,24)"/>
<path d="M0 0 C1.32 0 2.64 0 4 0 C4.20674944 5.78898419 3.59162079 10.42932723 2 16 C1.01 16 0.02 16 -1 16 C-1 14.68 -1 13.36 -1 12 C-1.763125 12.495 -2.52625 12.99 -3.3125 13.5 C-6 15 -6 15 -9 15 C-8.37441167 11.07840153 -6.46819561 8.44889774 -4.1875 5.25 C-3.15689453 3.77273437 -3.15689453 3.77273437 -2.10546875 2.265625 C-1.41066406 1.51796875 -0.71585938 0.7703125 0 0 Z " fill="#F4EFEA" transform="translate(127,92)"/>
<path d="M0 0 C-0.33 1.32 -0.66 2.64 -1 4 C-2.32 4 -3.64 4 -5 4 C-5 4.66 -5 5.32 -5 6 C-3.68 6.66 -2.36 7.32 -1 8 C-1 8.66 -1 9.32 -1 10 C-2.32 10.33 -3.64 10.66 -5 11 C-2.525 11.99 -2.525 11.99 0 13 C-0.33 13.99 -0.66 14.98 -1 16 C-4.0625 17.1875 -4.0625 17.1875 -7 18 C-9.31590289 14.52614567 -9.26991835 13.03569994 -9.25 8.9375 C-9.25515625 7.87402344 -9.2603125 6.81054688 -9.265625 5.71484375 C-9 3 -9 3 -7 1 C-4.49940039 0.19335496 -2.66053211 0 0 0 Z " fill="#F8F1EB" transform="translate(225,80)"/>
<path d="M0 0 C-0.226875 1.093125 -0.45375 2.18625 -0.6875 3.3125 C-0.8421875 5.1378125 -0.8421875 5.1378125 -1 7 C0.41666667 8.58333333 0.41666667 8.58333333 2 10 C2.3125 13.0625 2.3125 13.0625 2 16 C0 18 0 18 -3.125 18.125 C-4.548125 18.063125 -4.548125 18.063125 -6 18 C-6.33 16.68 -6.66 15.36 -7 14 C-5.35 13.67 -3.7 13.34 -2 13 C-2.598125 12.566875 -3.19625 12.13375 -3.8125 11.6875 C-5.72225402 10.21426118 -7.41897819 8.81817508 -9 7 C-9 6.34 -9 5.68 -9 5 C-8.34 5 -7.68 5 -7 5 C-6.67 4.01 -6.34 3.02 -6 2 C-3 0 -3 0 0 0 Z " fill="#F7F1E9" transform="translate(235,76)"/>
<path d="M0 0 C0 0.33 0 0.66 0 1 C-5.72753353 1.96204665 -11.24345928 2.05624123 -17.0390625 1.87304688 C-22.26221388 1.78733879 -27.70849072 2.02456097 -31.8125 5.5625 C-35.18838651 12.49195125 -35.46202902 20.42593495 -36 28 C-36.66 28 -37.32 28 -38 28 C-38.49089087 19.8184855 -38.0645914 9.63192071 -32.63671875 3.19921875 C-23.7956439 -4.17489257 -10.78843995 -1.10650666 0 0 Z " fill="#E1F7FC" transform="translate(150,44)"/>
<path d="M0 0 C2.875 0.25 2.875 0.25 6 1 C7.375 3.0625 7.375 3.0625 8 5 C5.50907189 6.24546405 4.58919267 5.7767578 2 5 C2.226875 5.598125 2.45375 6.19625 2.6875 6.8125 C2.790625 7.534375 2.89375 8.25625 3 9 C1.5625 10.5625 1.5625 10.5625 0 12 C0 12.99 0 13.98 0 15 C-2.97 14.505 -2.97 14.505 -6 14 C-6.71484375 11.80078125 -6.71484375 11.80078125 -7 9 C-5.56640625 6.54296875 -5.56640625 6.54296875 -3.5625 4.1875 C-2.90378906 3.39730469 -2.24507812 2.60710937 -1.56640625 1.79296875 C-1.04949219 1.20128906 -0.53257813 0.60960938 0 0 Z " fill="#F9F3EB" transform="translate(40,73)"/>
<path d="M0 0 C2.05078125 0.03255208 4.1015625 0.06510417 6.15234375 0.09765625 C5.82234375 1.08765625 5.49234375 2.07765625 5.15234375 3.09765625 C3.82930658 3.46976045 2.4949644 3.80395798 1.15234375 4.09765625 C0.82234375 4.75765625 0.49234375 5.41765625 0.15234375 6.09765625 C1.47234375 6.42765625 2.79234375 6.75765625 4.15234375 7.09765625 C3.16234375 8.58265625 3.16234375 8.58265625 2.15234375 10.09765625 C1.16234375 10.09765625 0.17234375 10.09765625 -0.84765625 10.09765625 C-0.84765625 10.75765625 -0.84765625 11.41765625 -0.84765625 12.09765625 C0.08046875 11.81921875 0.08046875 11.81921875 1.02734375 11.53515625 C3.15234375 11.09765625 3.15234375 11.09765625 5.15234375 12.09765625 C4.82234375 13.08765625 4.49234375 14.07765625 4.15234375 15.09765625 C1.51234375 15.42765625 -1.12765625 15.75765625 -3.84765625 16.09765625 C-4.80678118 12.34220933 -4.79842022 9.62580922 -3.97265625 5.84765625 C-3.78960937 4.97625 -3.6065625 4.10484375 -3.41796875 3.20703125 C-2.58786358 0.13677926 -2.58786358 0.13677926 0 0 Z " fill="#F6F1EB" transform="translate(174.84765625,89.90234375)"/>
<path d="M0 0 C2.2922454 0.30822621 4.58378455 0.62170874 6.875 0.9375 C8.15117188 1.11152344 9.42734375 1.28554687 10.7421875 1.46484375 C14 2 14 2 16 3 C16 3.99 16 4.98 16 6 C14.85724609 5.8453125 14.85724609 5.8453125 13.69140625 5.6875 C12.80324219 5.790625 11.91507813 5.89375 11 6 C9.2274219 8.19513773 9.2274219 8.19513773 7.9375 11 C6.52734375 13.8125 6.52734375 13.8125 5 16 C3.68 16 2.36 16 1 16 C2.58962659 11.96479403 4.28232318 7.98188718 6 4 C4.35 4 2.7 4 1 4 C0.67 2.68 0.34 1.36 0 0 Z " fill="#F6F1EB" transform="translate(73,84)"/>
<path d="M0 0 C-0.57344937 2.86724686 -0.8614515 3.8614515 -3 6 C-2.01 6.556875 -1.02 7.11375 0 7.6875 C3 10 3 10 3.5625 12.5625 C2.9068279 15.40374576 2.43789817 16.40275637 0 18 C-2.6875 18.1875 -2.6875 18.1875 -5 18 C-5.33 16.68 -5.66 15.36 -6 14 C-4.35 14 -2.7 14 -1 14 C-1 13.01 -1 12.02 -1 11 C-3.31 10.34 -5.62 9.68 -8 9 C-7.51219512 3.51219512 -7.51219512 3.51219512 -5.125 1.125 C-3 0 -3 0 0 0 Z " fill="#F6F1EA" transform="translate(247,71)"/>
<path d="M0 0 C2.125 0.9375 2.125 0.9375 4 2 C4.46557346 5.18141867 4.50963377 7.25343123 2.6640625 9.95703125 C1.15741976 11.6935608 -0.37936464 13.369718 -2 15 C-5.875 14.125 -5.875 14.125 -7 13 C-7.41194057 10.04775928 -7.5560236 7.90042627 -5.953125 5.3046875 C-4.15470674 3.1148488 -2.55678931 1.27839466 0 0 Z M0 4 C-1.485 5.98 -1.485 5.98 -3 8 C-2.67 8.66 -2.34 9.32 -2 10 C-1.01 8.68 -0.02 7.36 1 6 C0.67 5.34 0.34 4.68 0 4 Z " fill="#F5EFE9" transform="translate(68,83)"/>
<path d="M0 0 C2.625 0.375 2.625 0.375 5 1 C5.82273185 3.36734455 6.10990889 4.64262754 5.36328125 7.0703125 C5.01652344 7.74835938 4.66976562 8.42640625 4.3125 9.125 C3.97863281 9.80820313 3.64476563 10.49140625 3.30078125 11.1953125 C1.77318762 13.31467663 0.39213122 14.02300325 -2 15 C-2.99 14.34 -3.98 13.68 -5 13 C-5.6875 9.375 -5.6875 9.375 -6 6 C-5.34 6 -4.68 6 -4 6 C-3.71125 5.38125 -3.4225 4.7625 -3.125 4.125 C-2 2 -2 2 0 0 Z M1 4 C-0.60907108 6.37612865 -0.60907108 6.37612865 -2 9 C-1.67 9.66 -1.34 10.32 -1 11 C0.60907108 8.62387135 0.60907108 8.62387135 2 6 C1.67 5.34 1.34 4.68 1 4 Z " fill="#F4F0E8" transform="translate(99,90)"/>
<path d="M0 0 C0.99 0.33 1.98 0.66 3 1 C2.01 4.63 1.02 8.26 0 12 C1.32 12 2.64 12 4 12 C4 12.99 4 13.98 4 15 C-0.455 15.495 -0.455 15.495 -5 16 C-4.49228528 10.03435204 -2.61407872 5.36190101 0 0 Z " fill="#F7F2EC" transform="translate(137,91)"/>
<path d="M0 0 C0.99 0 1.98 0 3 0 C3 3.63 3 7.26 3 11 C3.99 11.33 4.98 11.66 6 12 C5.67 12.99 5.34 13.98 5 15 C2.0625 16.25 2.0625 16.25 -1 17 C-1.66 16.67 -2.32 16.34 -3 16 C-2.69075786 13.89535207 -2.3774944 11.7912947 -2.0625 9.6875 C-1.88847656 8.51574219 -1.71445313 7.34398438 -1.53515625 6.13671875 C-1 3 -1 3 0 0 Z " fill="#F5F0E8" transform="translate(184,88)"/>
<path d="M0 0 C1.51953125 1.20703125 1.51953125 1.20703125 3 3 C3.07421875 5.26171875 3.07421875 5.26171875 2.6875 7.6875 C2.50767578 8.89986328 2.50767578 8.89986328 2.32421875 10.13671875 C2.21722656 10.75160156 2.11023438 11.36648437 2 12 C3.32 12 4.64 12 6 12 C6 12.99 6 13.98 6 15 C3.42786866 16.61949011 2.32330841 17.04408751 -0.75 16.625 C-1.4925 16.41875 -2.235 16.2125 -3 16 C-2.57910004 10.39538469 -2.08386889 5.27913453 0 0 Z " fill="#F7F2EA" transform="translate(194,86)"/>
<path d="M0 0 C0.66 0.66 1.32 1.32 2 2 C-3.54152641 2.94323854 -8.22209771 3 -14 3 C-14 8.94 -14 14.88 -14 21 C-14.66 21 -15.32 21 -16 21 C-18.32019539 16.35960922 -17.41958392 9.81895112 -16.0625 4.9375 C-15 2 -15 2 -14 1 C-9.32934646 0.28752743 -4.7309364 -0.33792403 0 0 Z " fill="#DEF6FD" transform="translate(157,53)"/>
<path d="M0 0 C0.66 0 1.32 0 2 0 C1.53411505 5.70709064 0.06242216 9.15939723 -3 14 C-4.32 13.67 -5.64 13.34 -7 13 C-6.02325896 11.01963514 -5.04354018 9.04073867 -4.0625 7.0625 C-3.51722656 5.96035156 -2.97195312 4.85820313 -2.41015625 3.72265625 C-1 1 -1 1 0 0 Z " fill="#F4F0E9" transform="translate(92,88)"/>
<path d="M0 0 C0.99 0.495 0.99 0.495 2 1 C2.41064453 2.76586914 2.41064453 2.76586914 2.6328125 5.03515625 C2.71660156 5.84404297 2.80039063 6.65292969 2.88671875 7.48632812 C2.96535156 8.33646484 3.04398438 9.18660156 3.125 10.0625 C3.21136719 10.91650391 3.29773438 11.77050781 3.38671875 12.65039062 C3.59947228 14.76610633 3.80079953 16.88296524 4 19 C3.01 18.67 2.02 18.34 1 18 C0.67 12.06 0.34 6.12 0 0 Z " fill="#E5D4C7" transform="translate(167,53)"/>
<path d="M0 0 C0.33 0.66 0.66 1.32 1 2 C-0.2375 1.938125 -1.475 1.87625 -2.75 1.8125 C-5.44942143 1.83161095 -6.92767928 1.96847558 -9.4375 3.0625 C-11.692054 5.85814696 -11.73499386 8.48866866 -12 12 C-12.33 12 -12.66 12 -13 12 C-14.04262877 6.78685613 -14.04262877 6.78685613 -14 4 C-10.13435051 -1.3842975 -6.14851093 -1.25247445 0 0 Z " fill="#E9E3DA" transform="translate(159,24)"/>
<path d="M0 0 C4.23329605 0.77754417 5.96871202 2.61603526 9.0625 5.5625 C8.4025 6.2225 7.7425 6.8825 7.0625 7.5625 C6.52625 6.9025 5.99 6.2425 5.4375 5.5625 C3.20048467 3.30010554 3.20048467 3.30010554 0.125 3.25 C-2.62409608 3.53052001 -5.2488594 3.92987868 -7.9375 4.5625 C-5.31482418 2.09409923 -3.57472388 0.68452159 0 0 Z " fill="#E0F5FD" transform="translate(131.9375,19.4375)"/>
<path d="M0 0 C1.18681726 3.56045177 1.09689832 6.43808337 1.0625 10.1875 C1.05347656 11.45980469 1.04445312 12.73210937 1.03515625 14.04296875 C1.02355469 15.01878906 1.01195312 15.99460937 1 17 C0.34 17 -0.32 17 -1 17 C-3.22541672 12.54916655 -2.47279612 6.47748787 -1 1.875 C-0.67 1.25625 -0.34 0.6375 0 0 Z " fill="#D3ECFA" transform="translate(142,57)"/>
<path d="M0 0 C0.66 0 1.32 0 2 0 C2 4.95 2 9.9 2 15 C1.34 15 0.68 15 0 15 C0 10.05 0 5.1 0 0 Z " fill="#D6EBF4" transform="translate(121,59)"/>
<path d="M0 0 C3.96 0 7.92 0 12 0 C11.67 0.66 11.34 1.32 11 2 C8.27734375 2.4140625 8.27734375 2.4140625 4.9375 2.625 C3.83277344 2.69976562 2.72804688 2.77453125 1.58984375 2.8515625 C0.73519531 2.90054688 -0.11945313 2.94953125 -1 3 C-0.67 2.01 -0.34 1.02 0 0 Z " fill="#D5F0FA" transform="translate(125,43)"/>
<path d="M0 0 C2 2 2 2 2.1953125 4.3828125 C2.17210937 5.28773437 2.14890625 6.19265625 2.125 7.125 C2.10695312 8.03507812 2.08890625 8.94515625 2.0703125 9.8828125 C2.03550781 10.93082031 2.03550781 10.93082031 2 12 C1.34 11.67 0.68 11.34 0 11 C0 7.37 0 3.74 0 0 Z " fill="#DBC8BC" transform="translate(160,61)"/>
<path d="" fill="#FFFFFF" transform="translate(0,0)"/>
</svg>
