<?xml version="1.0" encoding="UTF-8"?>
<svg version="1.1" xmlns="http://www.w3.org/2000/svg" width="48" height="27">
<path d="M0 0 C7.59 0 15.18 0 23 0 C22.16131165 3.3547534 21.36944691 5.39591686 19.71484375 8.328125 C19.04291992 9.52695312 19.04291992 9.52695312 18.35742188 10.75 C17.65456055 11.9875 17.65456055 11.9875 16.9375 13.25 C16.46505859 14.09046875 15.99261719 14.9309375 15.50585938 15.796875 C14.34142039 17.86698876 13.1726855 19.93455014 12 22 C10.48645137 19.72967705 9.2965658 17.67669638 8.125 15.2421875 C7.77953125 14.53449219 7.4340625 13.82679687 7.078125 13.09765625 C6.35630572 11.6095578 5.63757871 10.11995564 4.921875 8.62890625 C3.22062187 4.63564825 3.22062187 4.63564825 0 2 C0 1.34 0 0.68 0 0 Z " fill="#92B0BF" transform="translate(11,4)"/>
</svg>
