<?xml version="1.0" encoding="UTF-8"?>
<svg version="1.1" xmlns="http://www.w3.org/2000/svg" width="45" height="41">
<path d="M0 0 C14.85 0 29.7 0 45 0 C45 13.53 45 27.06 45 41 C30.15 41 15.3 41 0 41 C0 27.47 0 13.94 0 0 Z " fill="#15364C" transform="translate(0,0)"/>
<path d="M0 0 C2.16186446 1.2753445 2.79429637 2.05418504 3.75390625 4.3984375 C4.65874541 11.44044662 5.25345478 18.47274213 0.75390625 24.3984375 C-2.37667461 25.96372793 -5.68688383 25.66535064 -9.12109375 25.7109375 C-9.84167969 25.73994141 -10.56226563 25.76894531 -11.3046875 25.79882812 C-14.59548989 25.83822079 -16.86245778 25.62449787 -19.71875 23.94140625 C-21.99797604 20.14658232 -21.86763756 16.74684076 -21.80859375 12.3984375 C-21.84436523 11.18800781 -21.84436523 11.18800781 -21.88085938 9.953125 C-21.87091275 5.93468685 -21.77366334 4.03289387 -19.14453125 0.87109375 C-13.29574562 -2.10059383 -6.25689265 -1.67575907 0 0 Z " fill="#19394F" transform="translate(29.24609375,7.6015625)"/>
<path d="M0 0 C2.16186446 1.2753445 2.79429637 2.05418504 3.75390625 4.3984375 C4.65874541 11.44044662 5.25345478 18.47274213 0.75390625 24.3984375 C-2.37667461 25.96372793 -5.68688383 25.66535064 -9.12109375 25.7109375 C-9.84167969 25.73994141 -10.56226563 25.76894531 -11.3046875 25.79882812 C-14.59548989 25.83822079 -16.86245778 25.62449787 -19.71875 23.94140625 C-21.99797604 20.14658232 -21.86763756 16.74684076 -21.80859375 12.3984375 C-21.84436523 11.18800781 -21.84436523 11.18800781 -21.88085938 9.953125 C-21.87091275 5.93468685 -21.77366334 4.03289387 -19.14453125 0.87109375 C-13.29574562 -2.10059383 -6.25689265 -1.67575907 0 0 Z M-19.24609375 4.3984375 C-19.44461477 7.10766551 -19.52448852 9.69146929 -19.49609375 12.3984375 C-19.50382812 13.13578125 -19.5115625 13.873125 -19.51953125 14.6328125 C-19.6561824 18.98265653 -19.6561824 18.98265653 -17.24609375 22.3984375 C-14.35477198 22.57022802 -11.5716731 22.6307322 -8.68359375 22.5859375 C-7.89017578 22.58529297 -7.09675781 22.58464844 -6.27929688 22.58398438 C-2.45369576 22.91943208 -2.45369576 22.91943208 0.75390625 21.3984375 C0.88053716 18.57427368 0.93911173 15.78548957 0.94140625 12.9609375 C0.95977539 11.77661133 0.95977539 11.77661133 0.97851562 10.56835938 C0.98377904 8.51036315 0.8759691 6.45281741 0.75390625 4.3984375 C-1.80558374 1.83894751 -3.5181657 2.13775019 -7.01171875 2.125 C-8.11773438 2.13660156 -8.11773438 2.13660156 -9.24609375 2.1484375 C-9.9834375 2.14070312 -10.72078125 2.13296875 -11.48046875 2.125 C-15.83031278 1.98834885 -15.83031278 1.98834885 -19.24609375 4.3984375 Z " fill="#677C8B" transform="translate(29.24609375,7.6015625)"/>
<path d="M0 0 C1.09054688 0.02320313 2.18109375 0.04640625 3.3046875 0.0703125 C4.40039062 0.08835937 5.49609375 0.10640625 6.625 0.125 C7.46804687 0.14820313 8.31109375 0.17140625 9.1796875 0.1953125 C8.54546875 0.47117187 7.91125 0.74703125 7.2578125 1.03125 C4.48424318 2.5848659 4.11360966 4.23789232 3.1796875 7.1953125 C2.5196875 7.1953125 1.8596875 7.1953125 1.1796875 7.1953125 C1.1796875 8.1853125 1.1796875 9.1753125 1.1796875 10.1953125 C1.8396875 10.1953125 2.4996875 10.1953125 3.1796875 10.1953125 C3.1796875 13.4953125 3.1796875 16.7953125 3.1796875 20.1953125 C0.3046875 20.3203125 0.3046875 20.3203125 -2.8203125 20.1953125 C-5.37980249 17.63582251 -5.08099981 15.92324055 -5.09375 12.4296875 C-5.08601562 11.69234375 -5.07828125 10.955 -5.0703125 10.1953125 C-5.07804688 9.45796875 -5.08578125 8.720625 -5.09375 7.9609375 C-5.06597588 0.35082935 -5.06597588 0.35082935 0 0 Z " fill="#18384E" transform="translate(14.8203125,9.8046875)"/>
<path d="M0 0 C0.70189453 0.01353516 1.40378906 0.02707031 2.12695312 0.04101562 C3.85579829 0.07629818 5.58424765 0.13010417 7.3125 0.1875 C7.3125 0.5175 7.3125 0.8475 7.3125 1.1875 C6.56484375 1.23648437 5.8171875 1.28546875 5.046875 1.3359375 C4.06203125 1.41070312 3.0771875 1.48546875 2.0625 1.5625 C0.60070312 1.66691406 0.60070312 1.66691406 -0.890625 1.7734375 C-3.58383189 2.17215249 -5.35713279 2.82257063 -7.6875 4.1875 C-7.74132106 6.81277189 -7.78108313 9.43694713 -7.8125 12.0625 C-7.82925781 12.80886719 -7.84601562 13.55523437 -7.86328125 14.32421875 C-7.8808959 16.27944461 -7.79070189 18.23492021 -7.6875 20.1875 C-4.82956684 23.04543316 -2.54084416 22.59549941 1.4375 22.8125 C2.71882813 22.88726563 4.00015625 22.96203125 5.3203125 23.0390625 C6.30773437 23.08804687 7.29515625 23.13703125 8.3125 23.1875 C8.3125 23.8475 8.3125 24.5075 8.3125 25.1875 C5.8946288 25.29576289 3.48162444 25.37489789 1.0625 25.4375 C0.03962891 25.48777344 0.03962891 25.48777344 -1.00390625 25.5390625 C-4.2178142 25.60146848 -6.35732468 25.3822457 -9.14453125 23.73828125 C-11.45207587 19.92353027 -11.23267896 16.4981553 -11.125 12.125 C-11.13208984 11.30966797 -11.13917969 10.49433594 -11.14648438 9.65429688 C-11.08303635 3.71458552 -11.08303635 3.71458552 -9.38378906 1.45019531 C-6.57177327 -0.64303233 -3.35571025 -0.12219673 0 0 Z " fill="#788B98" transform="translate(18.6875,7.8125)"/>
<path d="M0 0 C1.65 0 3.3 0 5 0 C5 0.99 5 1.98 5 3 C4.34 3 3.68 3 3 3 C3 3.66 3 4.32 3 5 C3.66 5 4.32 5 5 5 C5 5.99 5 6.98 5 8 C4.01 8 3.02 8 2 8 C2 10.97 2 13.94 2 17 C1.01 17 0.02 17 -1 17 C-1 14.03 -1 11.06 -1 8 C-1.66 8 -2.32 8 -3 8 C-3 7.01 -3 6.02 -3 5 C-2.34 5 -1.68 5 -1 5 C-0.67 3.35 -0.34 1.7 0 0 Z " fill="#788B97" transform="translate(19,12)"/>
<path d="M0 0 C0.33 0 0.66 0 1 0 C1.495 8.415 1.495 8.415 2 17 C-0.475 18.485 -0.475 18.485 -3 20 C-3 19.34 -3 18.68 -3 18 C-7.62 18 -12.24 18 -17 18 C-17 17.67 -17 17.34 -17 17 C-11.72 16.67 -6.44 16.34 -1 16 C-0.67 10.72 -0.34 5.44 0 0 Z " fill="#566D7D" transform="translate(30,13)"/>
</svg>
