<?xml version="1.0" encoding="UTF-8"?>
<svg version="1.1" xmlns="http://www.w3.org/2000/svg" width="112" height="101">
<path d="M0 0 C36.96 0 73.92 0 112 0 C112 33.33 112 66.66 112 101 C75.04 101 38.08 101 0 101 C0 67.67 0 34.34 0 0 Z " fill="#15364C" transform="translate(0,0)"/>
<path d="M0 0 C13.53 0 27.06 0 41 0 C41 1.65 41 3.3 41 5 C27.47 5 13.94 5 0 5 C0 3.35 0 1.7 0 0 Z " fill="#FFFFFF" transform="translate(35,35)"/>
<path d="M0 0 C1.65 0 3.3 0 5 0 C5.33 2.97 5.66 5.94 6 9 C6.33 8.67 6.66 8.34 7 8 C13.30920535 7.53265146 13.30920535 7.53265146 15.71484375 9.16015625 C17.51206502 11.73307788 17.29701502 13.58457433 17.1875 16.6875 C17.16042969 17.68136719 17.13335937 18.67523438 17.10546875 19.69921875 C17.07066406 20.45847656 17.03585938 21.21773437 17 22 C15.35 22 13.7 22 12 22 C11.67 18.7 11.34 15.4 11 12 C9.35 12.33 7.7 12.66 6 13 C5.67 15.97 5.34 18.94 5 22 C3.35 22 1.7 22 0 22 C0 14.74 0 7.48 0 0 Z " fill="#EBEEEF" transform="translate(82,24)"/>
<path d="M0 0 C2.1640625 0.34765625 2.1640625 0.34765625 4.7265625 1.97265625 C6.57955889 5.03412854 6.6885397 6.82616645 6.1640625 10.34765625 C4.61899784 12.3843324 3.44260094 13.20838703 1.1640625 14.34765625 C-2.67208707 14.70285528 -4.98223384 14.89490219 -8.2734375 12.78515625 C-10.41610598 9.44259342 -10.33167087 7.24270416 -9.8359375 3.34765625 C-7.07882141 -0.37445048 -4.35170633 -0.1630118 0 0 Z " fill="#F2F4F5" transform="translate(22.8359375,31.65234375)"/>
<path d="M0 0 C2.55426358 0.4561185 3.85018367 0.86568191 5.8125 2.625 C8.08144384 4.33655174 8.08144384 4.33655174 11.625 3.875 C15.25935918 3.33269236 15.25935918 3.33269236 17 0 C18.32 0 19.64 0 21 0 C20.4568634 3.80195622 18.84334437 5.50130343 16 8 C12.77834396 9.61082802 9.48360411 9.6006214 6 9 C3.07256866 6.75771217 1.41394017 5.17813739 0.1875 1.6875 C0.125625 1.130625 0.06375 0.57375 0 0 Z " fill="#EDEFF1" transform="translate(46,70)"/>
<path d="M0 0 C2.3431213 0.25561323 4.67843403 0.59270772 7 1 C8.32229189 3.64458379 8.09677194 5.67761301 8.0625 8.625 C8.05347656 9.62789062 8.04445313 10.63078125 8.03515625 11.6640625 C8.02355469 12.43492188 8.01195313 13.20578125 8 14 C6.35 14 4.7 14 3 14 C2.67 10.7 2.34 7.4 2 4 C0.68 4 -0.64 4 -2 4 C-1.34 2.68 -0.68 1.36 0 0 Z " fill="#F6F7F8" transform="translate(91,32)"/>
<path d="M0 0 C2.625 0.375 2.625 0.375 5 1 C5.38218767 2.65614657 5.71395102 4.32457024 6 6 C5 7 5 7 1.9375 7.0625 C0.968125 7.041875 -0.00125 7.02125 -1 7 C-1.625 4.625 -1.625 4.625 -2 2 C-1.34 1.34 -0.68 0.68 0 0 Z " fill="#28475B" transform="translate(19,35)"/>
</svg>
