<?xml version="1.0" encoding="UTF-8"?>
<svg version="1.1" xmlns="http://www.w3.org/2000/svg" width="52" height="45">
<path d="M0 0 C17.16 0 34.32 0 52 0 C52 14.85 52 29.7 52 45 C34.84 45 17.68 45 0 45 C0 30.15 0 15.3 0 0 Z " fill="#15364C" transform="translate(0,0)"/>
<path d="M0 0 C1.96453125 -0.01546875 1.96453125 -0.01546875 3.96875 -0.03125 C7.5 0.5 7.5 0.5 9.9375 1.96875 C12.27203013 5.75068881 12.08356897 9.14048533 12 13.5 C12.01546875 14.30695312 12.0309375 15.11390625 12.046875 15.9453125 C12.0226899 19.60935586 11.88737615 21.87245064 9.9375 25.03125 C6.53467029 27.08167303 3.95081118 27.03110875 0 27 C-1.96453125 27.01546875 -1.96453125 27.01546875 -3.96875 27.03125 C-7.5 26.5 -7.5 26.5 -9.9375 25.03125 C-12.27203013 21.24931119 -12.08356897 17.85951467 -12 13.5 C-12.01546875 12.69304688 -12.0309375 11.88609375 -12.046875 11.0546875 C-12.0226899 7.39064414 -11.88737615 5.12754936 -9.9375 1.96875 C-6.53467029 -0.08167303 -3.95081118 -0.03110875 0 0 Z " fill="#193A4F" transform="translate(27.5,8.5)"/>
<path d="M0 0 C1.96453125 -0.01546875 1.96453125 -0.01546875 3.96875 -0.03125 C7.5 0.5 7.5 0.5 9.9375 1.96875 C12.27203013 5.75068881 12.08356897 9.14048533 12 13.5 C12.01546875 14.30695312 12.0309375 15.11390625 12.046875 15.9453125 C12.0226899 19.60935586 11.88737615 21.87245064 9.9375 25.03125 C6.53467029 27.08167303 3.95081118 27.03110875 0 27 C-1.96453125 27.01546875 -1.96453125 27.01546875 -3.96875 27.03125 C-7.5 26.5 -7.5 26.5 -9.9375 25.03125 C-12.27203013 21.24931119 -12.08356897 17.85951467 -12 13.5 C-12.01546875 12.69304688 -12.0309375 11.88609375 -12.046875 11.0546875 C-12.0226899 7.39064414 -11.88737615 5.12754936 -9.9375 1.96875 C-6.53467029 -0.08167303 -3.95081118 -0.03110875 0 0 Z M-9.5 5.5 C-9.69852102 8.20922801 -9.77839477 10.79303179 -9.75 13.5 C-9.75773437 14.23734375 -9.76546875 14.9746875 -9.7734375 15.734375 C-9.91008865 20.08421903 -9.91008865 20.08421903 -7.5 23.5 C-4.95464859 23.69849071 -2.54283241 23.77851775 0 23.75 C1.03447266 23.76160156 1.03447266 23.76160156 2.08984375 23.7734375 C6.25214386 23.8761305 6.25214386 23.8761305 9.5 21.5 C9.69852102 18.79077199 9.77839477 16.20696821 9.75 13.5 C9.75773437 12.76265625 9.76546875 12.0253125 9.7734375 11.265625 C9.91008865 6.91578097 9.91008865 6.91578097 7.5 3.5 C4.95464859 3.30150929 2.54283241 3.22148225 0 3.25 C-1.03447266 3.23839844 -1.03447266 3.23839844 -2.08984375 3.2265625 C-6.25214386 3.1238695 -6.25214386 3.1238695 -9.5 5.5 Z " fill="#6B808D" transform="translate(27.5,8.5)"/>
<path d="M0 0 C3.5625 0.375 3.5625 0.375 5.5625 2 C6.90430884 5.18679601 6.49197204 7.08609893 5.5625 10.375 C3.5625 12.375 3.5625 12.375 0.0625 12.625 C-3.4375 12.375 -3.4375 12.375 -5.4375 10.375 C-5.703125 8.5 -5.703125 8.5 -5.6875 6.375 C-5.69265625 5.67375 -5.6978125 4.9725 -5.703125 4.25 C-5.17911634 0.55111533 -3.46857294 0.37838978 0 0 Z " fill="#728693" transform="translate(27.4375,15.625)"/>
<path d="M0 0 C2.43816585 -0.0809723 4.87364384 -0.14046972 7.3125 -0.1875 C8.34793945 -0.22520508 8.34793945 -0.22520508 9.40429688 -0.26367188 C14.54239312 -0.33813704 14.54239312 -0.33813704 16.70288086 1.25830078 C18.29949155 3.40214055 18.36225832 4.50982169 18.328125 7.16015625 C18.32296875 7.95357422 18.3178125 8.74699219 18.3125 9.56445312 C18.291875 10.38880859 18.27125 11.21316406 18.25 12.0625 C18.24484375 12.89072266 18.2396875 13.71894531 18.234375 14.57226562 C18.15472274 20.69055451 18.15472274 20.69055451 17 23 C16.01 23 15.02 23 14 23 C14.33 22.01 14.66 21.02 15 20 C15.12182523 17.30001293 15.18511299 14.63721229 15.1875 11.9375 C15.19974609 11.20466797 15.21199219 10.47183594 15.22460938 9.71679688 C15.22986299 7.80973493 15.12218272 5.90315114 15 4 C12.22957891 1.22957891 10.23466195 1.60203894 6.375 1.375 C5.18648437 1.30023438 3.99796875 1.22546875 2.7734375 1.1484375 C1.85820312 1.09945313 0.94296875 1.05046875 0 1 C0 0.67 0 0.34 0 0 Z " fill="#728693" transform="translate(21,10)"/>
<path d="M0 0 C0.69738281 0.01804687 1.39476562 0.03609375 2.11328125 0.0546875 C3.82611539 0.10161446 5.53823824 0.17335395 7.25 0.25 C6.92 1.24 6.59 2.23 6.25 3.25 C5.25097656 3.31058594 4.25195312 3.37117187 3.22265625 3.43359375 C1.93230469 3.51738281 0.64195313 3.60117188 -0.6875 3.6875 C-1.97527344 3.76871094 -3.26304688 3.84992187 -4.58984375 3.93359375 C-7.61023957 3.89919188 -7.61023957 3.89919188 -8.75 5.25 C-8.98653523 7.77596259 -9.17173692 10.28107207 -9.3125 12.8125 C-9.35568359 13.52341797 -9.39886719 14.23433594 -9.44335938 14.96679688 C-9.54971777 16.72761912 -9.65038846 18.4887832 -9.75 20.25 C-10.08 20.25 -10.41 20.25 -10.75 20.25 C-11.02631521 17.6670535 -11.27171274 15.08725557 -11.5 12.5 C-11.58121094 11.77039062 -11.66242187 11.04078125 -11.74609375 10.2890625 C-12.0251768 6.87804744 -12.03151309 4.71918848 -10.25 1.75 C-6.84604932 -0.29237041 -3.83962963 -0.18871526 0 0 Z " fill="#5E7584" transform="translate(27.75,8.75)"/>
<path d="M0 0 C2.5 0.125 2.5 0.125 3.5 1.125 C3.625 4.125 3.625 4.125 3.5 7.125 C2.5 8.125 2.5 8.125 0 8.25 C-2.5 8.125 -2.5 8.125 -3.5 7.125 C-3.625 4.125 -3.625 4.125 -3.5 1.125 C-2.5 0.125 -2.5 0.125 0 0 Z " fill="#1A3A50" transform="translate(27.5,17.875)"/>
<path d="M0 0 C1.9375 1.4375 1.9375 1.4375 2.6875 4.5625 C2.77 5.51125 2.8525 6.46 2.9375 7.4375 C1.9475 7.1075 0.9575 6.7775 -0.0625 6.4375 C-0.40592449 5.10673011 -0.73869874 3.77318021 -1.0625 2.4375 C-2.0525 1.7775 -3.0425 1.1175 -4.0625 0.4375 C-2.0625 -0.5625 -2.0625 -0.5625 0 0 Z " fill="#667B8A" transform="translate(31.0625,16.5625)"/>
</svg>
