<?xml version="1.0" encoding="UTF-8"?>
<svg version="1.1" xmlns="http://www.w3.org/2000/svg" width="208" height="162">
<path d="M0 0 C68.64 0 137.28 0 208 0 C208 53.46 208 106.92 208 162 C139.36 162 70.72 162 0 162 C0 108.54 0 55.08 0 0 Z " fill="#FEFEFE" transform="translate(0,0)"/>
<path d="M0 0 C2.44085199 -0.01659005 4.88165481 -0.04391961 7.32226562 -0.08203125 C10.8725663 -0.13703018 14.42174186 -0.15870307 17.97241211 -0.17333984 C19.05187607 -0.19600922 20.13134003 -0.21867859 21.24351501 -0.24203491 C28.39663094 -0.22226692 34.42257455 0.92259728 40.22631836 5.35009766 C44.46557333 10.06685326 43.66204115 15.99648936 43.64624023 21.97412109 C43.65470978 23.1503302 43.66317932 24.32653931 43.67190552 25.53839111 C43.69127594 28.7577077 43.69705378 31.97666816 43.695158 35.19603252 C43.69503808 37.88955385 43.70361166 40.58302134 43.71193552 43.27652764 C43.73115926 49.63669967 43.7340581 55.99674048 43.72729492 62.35693359 C43.72066315 68.90144227 43.74348524 75.44538604 43.78060865 81.98978019 C43.81138633 87.62143043 43.82265676 93.25289977 43.81877184 98.88463235 C43.81671158 102.24250751 43.82432669 105.59959449 43.84666443 108.95745087 C43.8688655 112.70825075 43.85914307 116.45769975 43.84155273 120.20849609 C43.85481598 121.30907349 43.86807922 122.40965088 43.88174438 123.5435791 C43.80712075 130.41203735 42.72826205 135.94299721 38.22631836 141.35009766 C28.35318768 144.64114121 16.73489943 143.56833181 6.42871094 143.59033203 C3.66628472 143.60008895 0.90458819 143.63122233 -1.85766602 143.66259766 C-13.26848748 143.73098795 -23.39081294 143.72235163 -32.77368164 136.35009766 C-33.51618164 135.77259766 -34.25868164 135.19509766 -35.02368164 134.60009766 C-39.37623034 129.00396361 -39.09914015 121.27890256 -39.18774414 114.48681641 C-39.21706528 113.04492195 -39.21706528 113.04492195 -39.24697876 111.57389832 C-39.3079945 108.39521857 -39.35429526 105.21655046 -39.39868164 102.03759766 C-39.43478133 99.80143176 -39.47091482 97.5652664 -39.50708008 95.32910156 C-39.61833947 88.00297989 -39.69836861 80.67666486 -39.77368164 73.35009766 C-39.78806274 72.03652283 -39.80244385 70.722948 -39.81726074 69.36956787 C-39.90464293 61.29612206 -39.96772231 53.22292069 -40.00384521 45.14907837 C-40.01700917 42.54502556 -40.03490956 39.94099215 -40.05767822 37.33700562 C-40.08751897 33.67197878 -40.0973189 30.0074198 -40.10180664 26.34228516 C-40.12025131 24.71881416 -40.12025131 24.71881416 -40.1390686 23.06254578 C-40.11769265 15.689849 -39.58029995 8.65200155 -34.64868164 2.85009766 C-25.14063996 -2.11061974 -10.44953208 0.05199122 0 0 Z " fill="#E6E0D8" transform="translate(95.773681640625,9.64990234375)"/>
<path d="M0 0 C2.68071399 -0.00989833 5.36071797 -0.04115588 8.04125977 -0.07226562 C9.76716678 -0.07878146 11.49307912 -0.08403747 13.21899414 -0.08789062 C14.40497444 -0.10641083 14.40497444 -0.10641083 15.61491394 -0.12530518 C20.45507516 -0.10582069 23.79261865 0.51332539 27.95727539 3.24023438 C30.95768157 6.4356141 31.32123285 8.59611846 31.265625 12.92553711 C31.25457481 14.65719872 31.25457481 14.65719872 31.24330139 16.42384338 C31.20806618 18.31102333 31.20806618 18.31102333 31.17211914 20.23632812 C31.15785986 21.57163679 31.14494612 22.90696042 31.13328552 24.24229431 C31.10556481 27.09406592 31.06838949 29.9454999 31.02386475 32.79705811 C30.95504361 37.22737521 30.90982169 41.65773742 30.86791992 46.08837891 C30.7935483 53.62881866 30.6939639 61.16872954 30.58496094 68.70874023 C30.52879519 72.60393849 30.47901729 76.49919333 30.4305582 80.39449406 C30.39166486 83.44085891 30.34859455 86.48715418 30.30433464 89.53344536 C30.28409797 90.97228401 30.26535661 92.41114457 30.24820137 93.85002327 C30.2240671 95.83830622 30.19347615 97.82650762 30.16259766 99.81469727 C30.14705338 100.93888565 30.13150909 102.06307404 30.11549377 103.22132874 C29.969942 105.9985475 29.58514386 108.53578049 28.95727539 111.24023438 C28.62727539 111.24023438 28.29727539 111.24023438 27.95727539 111.24023438 C27.94181419 109.70713623 27.94181419 109.70713623 27.92604065 108.14306641 C27.82810979 98.49171118 27.72535798 88.8404176 27.61793613 79.18916321 C27.56286864 74.22785567 27.50947537 69.26654209 27.45996094 64.30517578 C27.41207775 59.51352064 27.3597279 54.72193288 27.30433464 49.93035889 C27.28401912 48.10603523 27.26528898 46.28169317 27.24820137 44.45733643 C27.22391641 41.89401639 27.19389729 39.33082083 27.16259766 36.76757812 C27.15684219 36.02022903 27.15108673 35.27287994 27.14515686 34.50288391 C27.07858272 29.67841604 26.62878797 25.01921148 25.95727539 20.24023438 C24.63727539 19.91023438 23.31727539 19.58023437 21.95727539 19.24023438 C21.85415039 18.60085937 21.75102539 17.96148438 21.64477539 17.30273438 C21.41790039 16.62210938 21.19102539 15.94148438 20.95727539 15.24023438 C17.4007105 14.05471274 14.55044237 14.1106705 10.79711914 14.10742188 C10.09261124 14.10646515 9.38810333 14.10550842 8.6622467 14.10452271 C7.16854768 14.10384229 5.67484569 14.10568692 4.18115234 14.10986328 C1.92741987 14.11515769 -0.32610817 14.10994283 -2.57983398 14.10351562 C-4.03751671 14.10417752 -5.49519931 14.10546097 -6.95288086 14.10742188 C-8.26393799 14.1085498 -9.57499512 14.10967773 -10.92578125 14.11083984 C-15.64413424 14.25913653 -20.34546958 14.77050887 -25.04272461 15.24023438 C-10.19272461 15.24023438 4.65727539 15.24023438 19.95727539 15.24023438 C19.95727539 16.23023438 19.95727539 17.22023438 19.95727539 18.24023438 C19.19286133 18.26005371 18.42844727 18.27987305 17.64086914 18.30029297 C-4.97270732 18.15033589 -4.97270732 18.15033589 -27.04272461 22.24023438 C-27.37272461 51.61023438 -27.70272461 80.98023438 -28.04272461 111.24023438 C-29.03272461 111.24023438 -30.02272461 111.24023438 -31.04272461 111.24023438 C-31.37272461 80.22023437 -31.70272461 49.20023437 -32.04272461 17.24023438 C-32.37272461 48.92023437 -32.70272461 80.60023437 -33.04272461 113.24023438 C-31.39272461 113.24023438 -29.74272461 113.24023438 -28.04272461 113.24023438 C-28.04272461 114.89023438 -28.04272461 116.54023437 -28.04272461 118.24023438 C-22.10272461 117.91023438 -16.16272461 117.58023438 -10.04272461 117.24023438 C-10.70272461 118.56023437 -11.36272461 119.88023437 -12.04272461 121.24023438 C-12.39515537 124.13016663 -12.46343139 125.59810298 -10.85522461 128.05273438 C-8.42915521 129.64222812 -6.88875055 129.6051095 -4.04272461 129.24023438 C-1.76128648 127.37525961 -1.76128648 127.37525961 -1.73022461 124.42773438 C-2.07672705 120.89340947 -3.14888315 119.1834339 -5.04272461 116.24023438 C-1.2510747 116.21080313 2.54054518 116.19329247 6.33227539 116.17773438 C7.39317383 116.16935547 8.45407227 116.16097656 9.54711914 116.15234375 C16.08399743 116.13229198 22.46902363 116.43442657 28.95727539 117.24023438 C29.42088039 127.04462149 29.42088039 127.04462149 27.76977539 131.30273438 C24.02880802 135.30169949 19.42933093 135.54784071 14.17993164 135.87304688 C13.53213242 135.91460907 12.88433319 135.95617126 12.21690369 135.99899292 C10.84634404 136.08517251 9.47552412 136.16729762 8.10449219 136.24560547 C6.05665382 136.36311815 4.01001388 136.49387506 1.96313477 136.62695312 C-31.01557246 138.6882002 -31.01557246 138.6882002 -40.04272461 132.24023438 C-41.9443789 129.26342856 -42.30262294 126.91727547 -42.34570312 123.41845703 C-42.36234512 122.46290924 -42.37898712 121.50736145 -42.39613342 120.52285767 C-42.40454758 119.4937326 -42.41296173 118.46460754 -42.42163086 117.40429688 C-42.43862534 116.33335785 -42.45561981 115.26241882 -42.47312927 114.1590271 C-42.52624567 110.72782327 -42.56646676 107.29662798 -42.60522461 103.86523438 C-42.66373487 99.37816855 -42.72802088 94.89121925 -42.79663086 90.40429688 C-42.81264343 89.31597061 -42.82865601 88.22764435 -42.84515381 87.1063385 C-42.93623871 81.7468154 -43.11021008 76.43160259 -43.56225586 71.08789062 C-44.30786958 62.11849497 -44.19175082 53.12892802 -44.1730957 44.13500977 C-44.16771687 41.04829032 -44.17308051 37.96171516 -44.17944336 34.875 C-44.17878276 32.87825489 -44.17750197 30.88150987 -44.17553711 28.88476562 C-44.17756134 27.97926468 -44.17958557 27.07376373 -44.18167114 26.14082336 C-44.12027067 9.09807241 -44.12027067 9.09807241 -41.23022461 4.11523438 C-37.26589811 0.71724023 -32.62969659 0.9699626 -27.58569336 0.69335938 C-26.84457809 0.65172668 -26.10346283 0.61009399 -25.33988953 0.56719971 C-16.89647415 0.13006467 -8.45355246 0.01888534 0 0 Z " fill="#FAFBFB" transform="translate(102.042724609375,10.759765625)"/>
<path d="M0 0 C2.44085199 -0.01659005 4.88165481 -0.04391961 7.32226562 -0.08203125 C10.8725663 -0.13703018 14.42174186 -0.15870307 17.97241211 -0.17333984 C19.05187607 -0.19600922 20.13134003 -0.21867859 21.24351501 -0.24203491 C28.39663094 -0.22226692 34.42257455 0.92259728 40.22631836 5.35009766 C44.46557333 10.06685326 43.66204115 15.99648936 43.64624023 21.97412109 C43.65470978 23.1503302 43.66317932 24.32653931 43.67190552 25.53839111 C43.69127594 28.7577077 43.69705378 31.97666816 43.695158 35.19603252 C43.69503808 37.88955385 43.70361166 40.58302134 43.71193552 43.27652764 C43.73115926 49.63669967 43.7340581 55.99674048 43.72729492 62.35693359 C43.72066315 68.90144227 43.74348524 75.44538604 43.78060865 81.98978019 C43.81138633 87.62143043 43.82265676 93.25289977 43.81877184 98.88463235 C43.81671158 102.24250751 43.82432669 105.59959449 43.84666443 108.95745087 C43.8688655 112.70825075 43.85914307 116.45769975 43.84155273 120.20849609 C43.85481598 121.30907349 43.86807922 122.40965088 43.88174438 123.5435791 C43.80712075 130.41203735 42.72826205 135.94299721 38.22631836 141.35009766 C28.35318768 144.64114121 16.73489943 143.56833181 6.42871094 143.59033203 C3.66628472 143.60008895 0.90458819 143.63122233 -1.85766602 143.66259766 C-13.26848748 143.73098795 -23.39081294 143.72235163 -32.77368164 136.35009766 C-33.51618164 135.77259766 -34.25868164 135.19509766 -35.02368164 134.60009766 C-39.37623034 129.00396361 -39.09914015 121.27890256 -39.18774414 114.48681641 C-39.21706528 113.04492195 -39.21706528 113.04492195 -39.24697876 111.57389832 C-39.3079945 108.39521857 -39.35429526 105.21655046 -39.39868164 102.03759766 C-39.43478133 99.80143176 -39.47091482 97.5652664 -39.50708008 95.32910156 C-39.61833947 88.00297989 -39.69836861 80.67666486 -39.77368164 73.35009766 C-39.78806274 72.03652283 -39.80244385 70.722948 -39.81726074 69.36956787 C-39.90464293 61.29612206 -39.96772231 53.22292069 -40.00384521 45.14907837 C-40.01700917 42.54502556 -40.03490956 39.94099215 -40.05767822 37.33700562 C-40.08751897 33.67197878 -40.0973189 30.0074198 -40.10180664 26.34228516 C-40.12025131 24.71881416 -40.12025131 24.71881416 -40.1390686 23.06254578 C-40.11769265 15.689849 -39.58029995 8.65200155 -34.64868164 2.85009766 C-25.14063996 -2.11061974 -10.44953208 0.05199122 0 0 Z M-21.25805664 1.73681641 C-22.29135101 1.7819915 -22.29135101 1.7819915 -23.34552002 1.82807922 C-28.07415035 2.10576178 -32.07397418 2.47812189 -35.36984253 6.10803223 C-37.00112795 8.71335118 -37.25556969 10.38366182 -37.45288086 13.43481445 C-37.51715271 14.40744232 -37.58142456 15.38007019 -37.64764404 16.38217163 C-37.84045344 20.92243618 -37.9166525 25.45047957 -37.90649414 29.99462891 C-37.90745087 30.96687912 -37.90840759 31.93912933 -37.90939331 32.94084167 C-37.91006859 34.98196478 -37.90826023 37.02309011 -37.90405273 39.06420898 C-37.89871287 42.14458175 -37.90401111 45.22480756 -37.91040039 48.30517578 C-37.91343301 57.39663693 -37.78236317 66.38262977 -37.0144043 75.44604492 C-36.68492482 80.78956053 -36.6264707 86.1265441 -36.56274414 91.47900391 C-36.54845367 92.56597061 -36.53416321 93.65293732 -36.5194397 94.77284241 C-36.46149437 99.30840166 -36.4068097 103.84383352 -36.37231445 108.37963867 C-36.34477795 111.72556136 -36.29897983 115.07083191 -36.25024414 118.41650391 C-36.24536484 119.95244957 -36.24536484 119.95244957 -36.24038696 121.51942444 C-36.16416491 128.44356799 -36.16416491 128.44356799 -32.77368164 134.35009766 C-21.33582001 141.97533875 -2.73801172 138.46475464 10.19750977 137.66040039 C12.25217539 137.53603254 14.30733799 137.43043287 16.36303711 137.32470703 C17.67916992 137.24414062 18.99530273 137.16357422 20.35131836 137.08056641 C21.52952148 137.01248779 22.70772461 136.94440918 23.92163086 136.87426758 C28.15064598 136.20348629 31.95652056 135.04799871 34.59350586 131.52197266 C35.38726436 128.79771509 35.41879368 126.43406106 35.35131836 123.60009766 C35.33327148 122.61525391 35.31522461 121.63041016 35.29663086 120.61572266 C35.27342773 119.86806641 35.25022461 119.12041016 35.22631836 118.35009766 C27.66253819 117.41071471 20.21724331 117.22744758 12.60131836 117.28759766 C11.50174805 117.29210937 10.40217773 117.29662109 9.26928711 117.30126953 C6.58823833 117.31292627 3.90730904 117.32928748 1.22631836 117.35009766 C1.71487305 118.10935547 2.20342773 118.86861328 2.70678711 119.65087891 C4.50377453 122.84295682 4.62741854 124.74019607 4.22631836 128.35009766 C2.22631836 130.35009766 2.22631836 130.35009766 -0.21118164 130.66259766 C-2.77368164 130.35009766 -2.77368164 130.35009766 -4.58618164 129.16259766 C-6.19438842 126.70796626 -6.1261124 125.24002991 -5.77368164 122.35009766 C-5.11368164 121.03009766 -4.45368164 119.71009766 -3.77368164 118.35009766 C-9.71368164 118.68009766 -15.65368164 119.01009766 -21.77368164 119.35009766 C-21.77368164 117.70009766 -21.77368164 116.05009766 -21.77368164 114.35009766 C-23.42368164 114.35009766 -25.07368164 114.35009766 -26.77368164 114.35009766 C-26.44368164 82.67009766 -26.11368164 50.99009766 -25.77368164 18.35009766 C-25.44368164 49.37009766 -25.11368164 80.39009766 -24.77368164 112.35009766 C-19.82368164 112.02009766 -14.87368164 111.69009766 -9.77368164 111.35009766 C-6.58472016 111.22169642 -3.40459369 111.10652079 -0.21508789 111.03369141 C0.58494156 111.01291031 1.38497101 110.99212921 2.20924377 110.97071838 C4.69403972 110.90681497 7.17891365 110.84710324 9.66381836 110.78759766 C11.37801822 110.74425978 13.09221101 110.70064154 14.80639648 110.65673828 C18.94629644 110.55130494 23.08627233 110.44962261 27.22631836 110.35009766 C27.24944014 98.24167822 27.2672326 86.13326398 27.27813053 74.024827 C27.28335972 68.40301804 27.29045802 62.78122413 27.30175781 57.15942383 C27.31258542 51.73891488 27.31859492 46.31842046 27.3211956 40.89790154 C27.32305008 38.82494821 27.32667113 36.75199572 27.33204842 34.67904854 C27.33925716 31.78625872 27.34030937 28.8935297 27.33984375 26.00073242 C27.34523666 24.70169731 27.34523666 24.70169731 27.35073853 23.37641907 C27.71978873 19.55494278 27.71978873 19.55494278 26.22631836 16.35009766 C24.8140679 16.25722505 23.39722902 16.23262994 21.98193359 16.23657227 C20.63064613 16.23668556 20.63064613 16.23668556 19.25205994 16.23680115 C17.78332176 16.24454308 17.78332176 16.24454308 16.28491211 16.25244141 C15.28750504 16.25385635 14.29009796 16.2552713 13.26246643 16.25672913 C10.06288712 16.26234651 6.86337667 16.27490195 3.66381836 16.28759766 C1.50040791 16.29261042 -0.66300363 16.29717371 -2.82641602 16.30126953 C-8.14219489 16.31232159 -13.45793335 16.32907662 -18.77368164 16.35009766 C-12.71848695 15.66894227 -6.77757361 15.22252772 -0.68383789 15.21728516 C0.0273671 15.21632843 0.73857208 15.2153717 1.47132874 15.21438599 C2.95256643 15.2137134 4.43380724 15.21550236 5.91503906 15.21972656 C8.18357853 15.22514485 10.45192507 15.21972173 12.72045898 15.21337891 C14.16902713 15.21403876 15.61759515 15.21531799 17.06616211 15.21728516 C19.02090454 15.21897705 19.02090454 15.21897705 21.01513672 15.22070312 C24.22631836 15.35009766 24.22631836 15.35009766 27.22631836 16.35009766 C27.91381836 18.41259766 27.91381836 18.41259766 28.22631836 20.35009766 C30.20631836 20.84509766 30.20631836 20.84509766 32.22631836 21.35009766 C33.00543749 26.89488209 33.38855108 32.28224725 33.43164062 37.87744141 C33.44154022 38.68815598 33.45143982 39.49887054 33.4616394 40.33415222 C33.49295648 42.98527209 33.51789259 45.63640981 33.54272461 48.28759766 C33.56331994 50.13704872 33.58431705 51.98649535 33.60569763 53.8359375 C33.66065209 58.68227528 33.71017778 63.52865364 33.75854492 68.37506104 C33.80895547 73.32901584 33.86453905 78.28291237 33.91967773 83.23681641 C34.02693318 92.94119359 34.12844934 102.64562158 34.22631836 112.35009766 C34.55631836 112.35009766 34.88631836 112.35009766 35.22631836 112.35009766 C36.1214211 108.49457021 36.37696481 104.8788071 36.43164062 100.92456055 C36.45158585 99.64033707 36.47153107 98.35611359 36.49208069 97.03297424 C36.50911556 95.62956932 36.52599227 94.22616247 36.54272461 92.82275391 C36.56337124 91.35476705 36.58436923 89.88678509 36.60569763 88.41880798 C36.64966117 85.32619273 36.69052963 82.23355747 36.72900391 79.14086914 C36.77717486 75.27425465 36.83104106 71.40774874 36.88691139 67.54123878 C36.99544809 60.01795048 37.08443481 52.49474293 37.15345192 44.97098732 C37.19614015 40.55867755 37.26429071 36.14767581 37.35299397 31.73605824 C37.39295989 29.62440471 37.42392449 27.5128389 37.45115662 25.40098572 C37.48526401 22.80760442 37.53411818 20.21435999 37.60023499 17.62159729 C37.61611916 15.89476967 37.61611916 15.89476967 37.63232422 14.13305664 C37.65048691 13.13193344 37.6686496 12.13081024 37.68736267 11.09934998 C37.09495992 7.56679446 35.66961854 5.91707953 33.22631836 3.35009766 C28.93424976 0.82900522 24.42768335 1.07590994 19.58569336 1.11962891 C18.74524475 1.12008713 17.90479614 1.12054535 17.03887939 1.12101746 C15.25694368 1.12403437 13.47501048 1.1319039 11.69311523 1.14428711 C9.02699924 1.16225608 6.36123792 1.16479838 3.69506836 1.16455078 C-4.62925139 1.18072222 -12.94364648 1.31536512 -21.25805664 1.73681641 Z " fill="#2D596C" transform="translate(95.773681640625,9.64990234375)"/>
<path d="M0 0 C2.2576715 -0.0022134 4.51487372 -0.02050969 6.77246094 -0.03930664 C8.21777179 -0.04223666 9.66308492 -0.04422407 11.10839844 -0.04516602 C12.40632324 -0.0492749 13.70424805 -0.05338379 15.04150391 -0.05761719 C18.12035437 0.16733921 19.80007332 0.54976476 22.36621094 2.18530273 C22.36621094 3.50530273 22.36621094 4.82530273 22.36621094 6.18530273 C24.84121094 6.68030273 24.84121094 6.68030273 27.36621094 7.18530273 C28.11545992 12.56162827 28.5269142 17.82232349 28.5715332 23.25366211 C28.5814328 24.01560883 28.5913324 24.77755554 28.60153198 25.56259155 C28.63282026 28.05138163 28.65777342 30.54019072 28.68261719 33.02905273 C28.70321503 34.76640282 28.72421219 36.50374821 28.74559021 38.24108887 C28.80051882 42.7915057 28.85005568 47.34196554 28.8984375 51.89245605 C28.94886718 56.54479759 29.00444067 61.19707744 29.05957031 65.84936523 C29.16679405 74.96129158 29.26831696 84.07327171 29.36621094 93.18530273 C29.69621094 93.18530273 30.02621094 93.18530273 30.36621094 93.18530273 C30.49121094 100.81030273 30.49121094 100.81030273 29.36621094 104.18530273 C18.47621094 104.18530273 7.58621094 104.18530273 -3.63378906 104.18530273 C-2.64378906 105.50530273 -1.65378906 106.82530273 -0.63378906 108.18530273 C-0.2417549 111.38691509 -0.07421403 113.3017632 -1.82128906 116.06030273 C-4.33177313 117.61853423 -5.72680959 117.6816163 -8.63378906 117.18530273 C-11.37303927 115.18639042 -12.48215139 114.05180371 -13.07128906 110.68530273 C-12.56406272 107.78686648 -11.56994429 106.36347736 -9.63378906 104.18530273 C-10.74753906 104.35030273 -11.86128906 104.51530273 -13.00878906 104.68530273 C-17.88889244 105.30624779 -22.72240854 105.27588147 -27.63378906 105.18530273 C-27.63378906 103.53530273 -27.63378906 101.88530273 -27.63378906 100.18530273 C-29.28378906 100.18530273 -30.93378906 100.18530273 -32.63378906 100.18530273 C-32.63378906 68.50530273 -32.63378906 36.82530273 -32.63378906 4.18530273 C-31.97378906 3.85530273 -31.31378906 3.52530273 -30.63378906 3.18530273 C-30.63378906 34.53530273 -30.63378906 65.88530273 -30.63378906 98.18530273 C-23.20878906 97.19530273 -23.20878906 97.19530273 -15.63378906 96.18530273 C-3.42378906 96.18530273 8.78621094 96.18530273 21.36621094 96.18530273 C21.03621094 65.49530273 20.70621094 34.80530273 20.36621094 3.18530273 C4.19621094 3.18530273 -11.97378906 3.18530273 -28.63378906 3.18530273 C-19.978698 -1.1422428 -9.50942733 -0.00104591 0 0 Z " fill="#E0DCD5" transform="translate(101.6337890625,23.814697265625)"/>
<path d="M0 0 C2.2576715 -0.0022134 4.51487372 -0.02050969 6.77246094 -0.03930664 C8.21777179 -0.04223666 9.66308492 -0.04422407 11.10839844 -0.04516602 C12.40632324 -0.0492749 13.70424805 -0.05338379 15.04150391 -0.05761719 C18.14855976 0.16940004 19.90929582 0.29843666 22.36621094 2.18530273 C23.23943126 4.88552833 23.4976963 7.37089829 23.52442932 10.19696045 C23.53421814 10.98497543 23.54400696 11.77299042 23.55409241 12.58488464 C23.5627256 13.86774101 23.5627256 13.86774101 23.5715332 15.17651367 C23.5814328 16.08417984 23.5913324 16.99184601 23.60153198 17.92701721 C23.63309722 20.92454426 23.65788479 23.92208716 23.68261719 26.91967773 C23.70319101 28.99904795 23.72418759 31.07841403 23.74559021 33.15777588 C23.80076666 38.62889245 23.8501955 44.1000465 23.8984375 49.57122803 C23.94868482 55.15485974 24.00435403 60.73843709 24.05957031 66.32202148 C24.16709776 77.27640212 24.26855478 88.23082997 24.36621094 99.18530273 C23.15562012 99.18006592 21.9450293 99.1748291 20.69775391 99.16943359 C16.19141382 99.15128593 11.68507694 99.13983507 7.17871094 99.13037109 C5.23111426 99.12535318 3.28352133 99.11853739 1.3359375 99.10986328 C-1.46908495 99.09768622 -4.27405743 99.0920489 -7.07910156 99.08764648 C-8.37788742 99.07990456 -8.37788742 99.07990456 -9.70291138 99.07200623 C-13.09073384 99.07169432 -16.25989949 99.12163647 -19.60595703 99.69140625 C-23.89500094 100.39103017 -28.28805883 100.18530273 -32.63378906 100.18530273 C-32.63378906 68.50530273 -32.63378906 36.82530273 -32.63378906 4.18530273 C-31.97378906 3.85530273 -31.31378906 3.52530273 -30.63378906 3.18530273 C-30.63378906 34.53530273 -30.63378906 65.88530273 -30.63378906 98.18530273 C-23.20878906 97.19530273 -23.20878906 97.19530273 -15.63378906 96.18530273 C-3.42378906 96.18530273 8.78621094 96.18530273 21.36621094 96.18530273 C21.03621094 65.49530273 20.70621094 34.80530273 20.36621094 3.18530273 C4.19621094 3.18530273 -11.97378906 3.18530273 -28.63378906 3.18530273 C-19.978698 -1.1422428 -9.50942733 -0.00104591 0 0 Z " fill="#275467" transform="translate(101.6337890625,23.814697265625)"/>
<path d="M0 0 C0.87510727 0.00141495 1.75021454 0.0028299 2.65184021 0.00428772 C5.41246137 0.00982906 8.17299763 0.02237013 10.93359375 0.03515625 C12.81966028 0.04017885 14.70572809 0.04474042 16.59179688 0.04882812 C21.18492792 0.05977918 25.7779965 0.07700241 30.37109375 0.09765625 C30.37109375 1.08765625 30.37109375 2.07765625 30.37109375 3.09765625 C29.60667969 3.11747559 28.84226563 3.13729492 28.0546875 3.15771484 C5.44111104 3.00775777 5.44111104 3.00775777 -16.62890625 7.09765625 C-16.95890625 36.46765625 -17.28890625 65.83765625 -17.62890625 96.09765625 C-18.61890625 96.09765625 -19.60890625 96.09765625 -20.62890625 96.09765625 C-20.62890625 65.07765625 -20.62890625 34.05765625 -20.62890625 2.09765625 C-14.67568321 -0.87895527 -6.51264515 -0.04057168 0 0 Z " fill="#FDFEFE" transform="translate(91.62890625,25.90234375)"/>
<path d="M0 0 C0.66 0 1.32 0 2 0 C3.81147153 3.11172861 4.25084174 5.36714359 4.25396729 8.95161438 C4.25960693 9.94828125 4.26524658 10.94494812 4.27105713 11.97181702 C4.26700867 13.05917648 4.26296021 14.14653595 4.25878906 15.2668457 C4.2622937 16.41686066 4.26579834 17.56687561 4.26940918 18.7517395 C4.27822347 22.55981453 4.27237711 26.36770427 4.265625 30.17578125 C4.26697201 32.82130468 4.26891284 35.46682788 4.27142334 38.11235046 C4.27506163 43.66142791 4.27026911 49.21045212 4.26074219 54.75952148 C4.24987396 61.16356096 4.25337184 67.56747293 4.264395 73.97150928 C4.27349104 79.47739731 4.27474137 84.98324709 4.26951766 90.48914021 C4.26640859 93.77406351 4.2667506 97.05891421 4.27259064 100.34383583 C4.27767787 104.01096795 4.26991364 107.67785667 4.25878906 111.3449707 C4.26283752 112.42625748 4.26688599 113.50754425 4.27105713 114.62159729 C4.23476969 121.08892606 4.09374393 126.81750922 0.4375 132.375 C-5.30191603 136.20127735 -13.93747819 135.13934169 -20.62890625 135.09765625 C-21.50401352 135.0962413 -22.37912079 135.09482635 -23.28074646 135.09336853 C-26.04136762 135.08782719 -28.80190388 135.07528612 -31.5625 135.0625 C-33.44856653 135.0574774 -35.33463434 135.05291583 -37.22070312 135.04882812 C-41.81383417 135.03787707 -46.40690275 135.02065384 -51 135 C-51 134.67 -51 134.34 -51 134 C-49.794646 133.91959473 -48.58929199 133.83918945 -47.34741211 133.75634766 C-42.85354435 133.45456239 -38.36041288 133.14281145 -33.86743164 132.828125 C-31.92686166 132.69359003 -29.98610507 132.56171822 -28.04516602 132.43261719 C-25.24701874 132.24602619 -22.44969396 132.04970442 -19.65234375 131.8515625 C-18.7916478 131.79626373 -17.93095184 131.74096497 -17.04417419 131.68399048 C-9.83521329 131.17374458 -9.83521329 131.17374458 -3 129 C1.18972695 122.87518272 0.55788867 115.51221903 0.6796875 108.32421875 C0.71241252 106.9230554 0.74578802 105.52190712 0.77975464 104.12077332 C1.1699603 86.59956452 1.1513793 69.06925206 1.13037109 51.54467773 C1.12456354 46.69661282 1.12804205 41.84860196 1.13394356 37.00053883 C1.13754896 33.22162971 1.13641257 29.44273358 1.13381577 25.66382408 C1.13315211 23.87328777 1.13395515 22.08275025 1.13629532 20.29221535 C1.13883344 17.81562744 1.13496989 15.33912998 1.12939453 12.86254883 C1.13141876 12.13598587 1.13344299 11.40942291 1.13552856 10.6608429 C1.12017726 6.98157473 0.87628114 3.57805284 0 0 Z " fill="#F9FAFA" transform="translate(133,16)"/>
<path d="M0 0 C2.44529534 3.66794302 2.27538625 6.39628583 2.24291992 10.63549805 C2.24481827 11.41358826 2.24671661 12.19167847 2.24867249 12.99334717 C2.25239277 15.58290521 2.24163126 18.17218522 2.23046875 20.76171875 C2.22927409 22.58649157 2.22882439 24.41126501 2.2290802 26.23603821 C2.22751151 30.08553868 2.21921305 33.93494669 2.20581055 37.78442383 C2.18916363 42.617213 2.18511263 47.44989872 2.18557549 52.28271294 C2.185464 63.33553931 2.13479598 74.38727307 2.02532196 85.43956757 C2.00865403 87.12494711 1.99296729 88.81033668 1.97834015 90.49573517 C1.93754421 95.06772939 1.8761494 99.63842055 1.77865028 104.20957375 C1.73969095 106.19759681 1.71841311 108.1859422 1.69779968 110.17424011 C1.3537695 123.21749776 1.3537695 123.21749776 -3 128 C-14.55294805 133.12940609 -30.96729223 131.13641871 -43.5 131.0625 C-45.01692557 131.05746416 -46.5338528 131.05290501 -48.05078125 131.04882812 C-51.7005564 131.03801236 -55.35026679 131.02086846 -59 131 C-59 130.67 -59 130.34 -59 130 C-58.39944794 129.96907761 -57.79889587 129.93815521 -57.18014526 129.90629578 C-50.91733712 129.58120158 -44.65574607 129.23748989 -38.39453125 128.88305664 C-36.05917888 128.75329684 -33.72355951 128.62825128 -31.38769531 128.50805664 C-28.02587507 128.33424338 -24.66538673 128.14337485 -21.3046875 127.94921875 C-20.26384003 127.89908127 -19.22299255 127.84894379 -18.15060425 127.79728699 C-12.82751762 127.47246318 -8.52140247 127.12468737 -4 124 C-0.76771771 114.30315312 -1.8306728 102.36794638 -1.73963928 92.176651 C-1.71804019 89.7644788 -1.69107006 87.35241233 -1.66296387 84.94030762 C-1.60396826 79.79358333 -1.55172848 74.64680162 -1.5 69.5 C-1.4314363 62.76036518 -1.35946026 56.02078018 -1.28125 49.28125 C-1.26717102 48.05409775 -1.26717102 48.05409775 -1.25280762 46.80215454 C-1.06790434 31.19194695 -0.61501259 15.59911836 0 0 Z " fill="#345F71" transform="translate(133,18)"/>
<path d="M0 0 C6.79504192 -0.1275133 13.58977163 -0.21464857 20.38574219 -0.2746582 C22.69412771 -0.29969317 25.00243483 -0.33373154 27.31054688 -0.37719727 C30.64212465 -0.43833373 33.97264813 -0.46632107 37.3046875 -0.48828125 C38.834991 -0.52699089 38.834991 -0.52699089 40.39620972 -0.56648254 C47.4170716 -0.5691874 53.29901867 0.68876266 59 5 C61.48820678 8.51954555 62.37502902 10.92465569 62.3742218 15.21940613 C62.38474327 16.76517082 62.38474327 16.76517082 62.39547729 18.34216309 C62.38783356 19.46183472 62.38018982 20.58150635 62.37231445 21.73510742 C62.37596512 22.92256058 62.37961578 24.11001373 62.38337708 25.33345032 C62.39008509 28.58125413 62.38338356 31.82868265 62.37004495 35.07645583 C62.35871217 38.47612654 62.36283916 41.87578275 62.36479187 45.27546692 C62.36567391 50.98081397 62.35461038 56.68604198 62.33618164 62.39135742 C62.31498491 68.99149549 62.3115111 75.5914596 62.3177436 82.19162482 C62.32343233 88.54068438 62.31779939 94.88968258 62.30657005 101.23873329 C62.30192063 103.94165492 62.30105165 106.64453906 62.3031559 109.34746361 C62.303525 113.11610407 62.29095081 116.8844759 62.2746582 120.65307617 C62.27713562 121.7788205 62.27961304 122.90456482 62.28216553 124.06442261 C62.27153831 125.59749809 62.27153831 125.59749809 62.26069641 127.1615448 C62.25864354 128.05287707 62.25659067 128.94420935 62.25447559 129.86255169 C62 132 62 132 60 134 C59.99576806 133.36462437 59.99153612 132.72924873 59.98717594 132.07461929 C59.88389227 116.61786059 59.77525791 101.16115016 59.66066074 85.70447159 C59.60537171 78.22975469 59.55189682 70.75503302 59.50268555 63.28027344 C59.45979078 56.76563312 59.41349946 50.25102733 59.36312145 43.73644042 C59.33656314 40.28670962 59.31171118 36.83698548 59.29092598 33.38721466 C59.26766486 29.53706803 59.23682101 25.68700256 59.20532227 21.83691406 C59.19668907 20.11924835 59.19668907 20.11924835 59.18788147 18.36688232 C59.17809265 17.31802856 59.16830383 16.2691748 59.15821838 15.1885376 C59.15176583 14.27780613 59.14531328 13.36707466 59.1386652 12.42874527 C59.00863135 10.15117956 58.63871141 8.18378778 58 6 C57.34 6 56.68 6 56 6 C55.67 6.66 55.34 7.32 55 8 C54.236875 7.195625 53.47375 6.39125 52.6875 5.5625 C49.23819755 2.27363022 46.92545569 1.88063858 42.3449707 1.79467773 C41.40422195 1.77473251 40.46347321 1.75478729 39.49421692 1.73423767 C38.48163315 1.71752518 37.46904938 1.70081268 36.42578125 1.68359375 C35.38681198 1.66281265 34.34784271 1.64203156 33.27738953 1.62062073 C29.95582747 1.55519344 26.63418584 1.49627179 23.3125 1.4375 C21.0618407 1.39430831 18.81118948 1.35069381 16.56054688 1.30664062 C11.0404489 1.19951902 5.52027163 1.09773984 0 1 C0 0.67 0 0.34 0 0 Z " fill="#2B576A" transform="translate(77,10)"/>
<path d="M0 0 C0.33 0 0.66 0 1 0 C1.00808685 0.61752136 1.01617371 1.23504272 1.02450562 1.87127686 C1.11052587 8.29525438 1.21002857 14.71892243 1.31738281 21.14257812 C1.35567905 23.54031174 1.39053076 25.93810293 1.421875 28.3359375 C1.46751105 31.78145942 1.5255087 35.22658472 1.5859375 38.671875 C1.60326431 40.28144073 1.60326431 40.28144073 1.62094116 41.92352295 C1.64081085 42.92425842 1.66068054 43.9249939 1.68115234 44.95605469 C1.69447601 45.83541687 1.70779968 46.71477905 1.7215271 47.62078857 C2.02405157 50.20549138 2.60594226 51.81125137 4 54 C8.78329161 57.14997252 13.42789287 57.64090865 19 58 C19 58.33 19 58.66 19 59 C23.95 59.33 28.9 59.66 34 60 C34 60.33 34 60.66 34 61 C37.9652407 61.02497729 41.93045005 61.0429894 45.89575195 61.05493164 C47.89731458 61.06235104 49.89885533 61.07506659 51.90039062 61.08789062 C63.96284489 61.89637517 63.96284489 61.89637517 74.5 57.75 C75.95736634 55.07816171 76.65611699 53.0089763 77 50 C77.33 50 77.66 50 78 50 C78.29201904 54.96432365 78.14707573 58.03701574 75 62 C65.12686933 65.29104356 53.50858108 64.21823415 43.20239258 64.24023438 C40.43996636 64.24999129 37.67826983 64.28112467 34.91601562 64.3125 C23.50519416 64.3808903 13.3828687 64.37225398 4 57 C3.236875 56.401875 2.47375 55.80375 1.6875 55.1875 C-2.38501298 49.90831651 -1.0554128 41.5872664 -0.87890625 35.25390625 C-0.85529526 34.24279282 -0.83168427 33.23167938 -0.80735779 32.18992615 C-0.73117375 28.98062494 -0.64695615 25.7715931 -0.5625 22.5625 C-0.50923395 20.37826811 -0.45649391 18.19402332 -0.40429688 16.00976562 C-0.27562037 10.67301274 -0.1403587 5.33645774 0 0 Z " fill="#406879" transform="translate(59,89)"/>
<path d="M0 0 C0.33 0 0.66 0 1 0 C1.09938156 5.55007795 1.1717096 11.09963018 1.21972656 16.65039062 C1.23975767 18.53589916 1.26699073 20.42134623 1.30175781 22.30664062 C1.35065272 25.02749862 1.37305382 27.74753056 1.390625 30.46875 C1.41127014 31.30241089 1.43191528 32.13607178 1.45318604 32.99499512 C1.45531062 38.62232412 0.70110287 43.55615617 -3 48 C-14.55294805 53.12940609 -30.96729223 51.13641871 -43.5 51.0625 C-45.01692557 51.05746416 -46.5338528 51.05290501 -48.05078125 51.04882812 C-51.7005564 51.03801236 -55.35026679 51.02086846 -59 51 C-59 50.67 -59 50.34 -59 50 C-58.39944794 49.96907761 -57.79889587 49.93815521 -57.18014526 49.90629578 C-50.91733712 49.58120158 -44.65574607 49.23748989 -38.39453125 48.88305664 C-36.05917888 48.75329684 -33.72355951 48.62825128 -31.38769531 48.50805664 C-28.02587507 48.33424338 -24.66538673 48.14337485 -21.3046875 47.94921875 C-19.74341629 47.87401253 -19.74341629 47.87401253 -18.15060425 47.79728699 C-12.82751762 47.47246318 -8.52140247 47.12468737 -4 44 C-3.12925931 41.38777793 -2.83494249 39.6918759 -2.71875 37.00341797 C-2.68201172 36.20604218 -2.64527344 35.40866638 -2.60742188 34.58712769 C-2.57197266 33.73079742 -2.53652344 32.87446716 -2.5 31.9921875 C-2.4390918 30.67034958 -2.4390918 30.67034958 -2.37695312 29.32180786 C-2.20309226 25.54831655 -2.03911162 21.77441442 -1.875 18.00048828 C-1.75384533 15.24753241 -1.62711544 12.49487352 -1.5 9.7421875 C-1.46455078 8.88180878 -1.42910156 8.02143005 -1.39257812 7.13497925 C-1.11290603 1.11290603 -1.11290603 1.11290603 0 0 Z " fill="#1E4D62" transform="translate(133,98)"/>
<path d="M0 0 C0.66 0 1.32 0 2 0 C3.82626368 3.12900082 4.24811668 5.39269227 4.24050903 8.99871826 C4.24325836 10.00550125 4.24600769 11.01228424 4.24884033 12.04957581 C4.24164978 13.14793259 4.23445923 14.24628937 4.22705078 15.37792969 C4.22734283 16.53918869 4.22763489 17.70044769 4.22793579 18.89689636 C4.22654148 22.73863168 4.2109752 26.58017352 4.1953125 30.421875 C4.19158273 33.08417082 4.18863722 35.7464559 4.18673706 38.40875244 C4.18052279 44.70207001 4.1641127 50.99531802 4.14403808 57.28860497 C4.12167743 64.45421061 4.11068524 71.61981957 4.10064721 78.78545141 C4.07974642 93.52366983 4.04457147 108.2618337 4 123 C3.67 123 3.34 123 3 123 C2.98969254 121.69867126 2.97938507 120.39734253 2.96876526 119.05657959 C2.87075959 106.75757616 2.76800149 94.45862027 2.66066074 82.15969467 C2.60563454 75.83759962 2.55224847 69.5154998 2.50268555 63.19335938 C2.4547407 57.08547465 2.40238976 50.97764176 2.34705925 44.86981964 C2.32677131 42.5464025 2.30803713 40.22297122 2.29092598 37.8995285 C2.2665788 34.63055855 2.23656979 31.36168376 2.20532227 28.09277344 C2.1995668 27.14473846 2.19381134 26.19670349 2.18788147 25.21994019 C2.09681478 16.769008 1.79437385 8.28043637 0 0 Z " fill="#A7B9C1" transform="translate(133,16)"/>
<path d="M0 0 C0.33 0 0.66 0 1 0 C1.00808685 0.61752136 1.01617371 1.23504272 1.02450562 1.87127686 C1.11052587 8.29525438 1.21002857 14.71892243 1.31738281 21.14257812 C1.35567905 23.54031174 1.39053076 25.93810293 1.421875 28.3359375 C1.46751105 31.78145942 1.5255087 35.22658472 1.5859375 38.671875 C1.60326431 40.28144073 1.60326431 40.28144073 1.62094116 41.92352295 C1.64081085 42.92425842 1.66068054 43.9249939 1.68115234 44.95605469 C1.69447601 45.83541687 1.70779968 46.71477905 1.7215271 47.62078857 C2.02405157 50.20549138 2.60594226 51.81125137 4 54 C8.78329161 57.14997252 13.42789287 57.64090865 19 58 C19 58.33 19 58.66 19 59 C23.95 59.33 28.9 59.66 34 60 C34 60.33 34 60.66 34 61 C31.6460153 61.16965655 29.29186616 61.3357935 26.9375 61.5 C25.62652344 61.5928125 24.31554687 61.685625 22.96484375 61.78125 C13.13898457 62.32336637 9.18467553 60.98821195 1.5625 55.125 C-2.34974243 49.8043503 -1.05407017 41.53909053 -0.87890625 35.25390625 C-0.85529526 34.24279282 -0.83168427 33.23167938 -0.80735779 32.18992615 C-0.73117375 28.98062494 -0.64695615 25.7715931 -0.5625 22.5625 C-0.50923395 20.37826811 -0.45649391 18.19402332 -0.40429688 16.00976562 C-0.27562037 10.67301274 -0.1403587 5.33645774 0 0 Z " fill="#5A7C8B" transform="translate(59,89)"/>
<path d="M0 0 C2.4375 0.5 2.4375 0.5 4.25 2.125 C5.77014845 5.1652969 5.86638292 7.14041709 5.4375 10.5 C4.25 12.375 4.25 12.375 2.4375 13.5 C0 13.9375 0 13.9375 -2.5625 13.5 C-5.29501347 11.50600369 -6.39497946 10.3376027 -7.0625 7 C-6.22594758 2.81723788 -4.17792922 0.8152057 0 0 Z " fill="#225064" transform="translate(95.5625,127.5)"/>
<path d="M0 0 C0.639375 0.33 1.27875 0.66 1.9375 1 C1.2775 2.32 0.6175 3.64 -0.0625 5 C-5.0125 5 -9.9625 5 -15.0625 5 C-15.3925 3.68 -15.7225 2.36 -16.0625 1 C-10.91553264 -1.94112421 -5.56430575 -1.81691616 0 0 Z " fill="#3F6778" transform="translate(105.0625,15)"/>
<path d="M0 0 C0.33 0 0.66 0 1 0 C1.02491426 4.26838806 1.04296047 8.53673639 1.05493164 12.80517578 C1.05992785 14.25407652 1.06672709 15.70297231 1.07543945 17.15185547 C1.16964157 33.23271075 1.16964157 33.23271075 0 39 C-0.99 39.495 -0.99 39.495 -2 40 C-2.05817667 31.07219028 -1.90444363 22.17115627 -1.5625 13.25 C-1.52318359 12.07695313 -1.48386719 10.90390625 -1.44335938 9.6953125 C-1.40146484 8.58414063 -1.35957031 7.47296875 -1.31640625 6.328125 C-1.27974854 5.3268457 -1.24309082 4.32556641 -1.20532227 3.29394531 C-1 1 -1 1 0 0 Z " fill="#124359" transform="translate(133,98)"/>
<path d="M0 0 C6.79504192 -0.1275133 13.58977163 -0.21464857 20.38574219 -0.2746582 C22.69412771 -0.29969317 25.00243483 -0.33373154 27.31054688 -0.37719727 C30.64212465 -0.43833373 33.97264813 -0.46632107 37.3046875 -0.48828125 C38.834991 -0.52699089 38.834991 -0.52699089 40.39620972 -0.56648254 C47.33152653 -0.56915444 53.43886902 0.58622295 59 5 C60.27462769 7.6738739 60.27462769 7.6738739 61 10 C60.34 10 59.68 10 59 10 C58.505 8.02 58.505 8.02 58 6 C57.34 6 56.68 6 56 6 C55.67 6.66 55.34 7.32 55 8 C54.236875 7.195625 53.47375 6.39125 52.6875 5.5625 C49.23819755 2.27363022 46.92545569 1.88063858 42.3449707 1.79467773 C41.40422195 1.77473251 40.46347321 1.75478729 39.49421692 1.73423767 C38.48163315 1.71752518 37.46904938 1.70081268 36.42578125 1.68359375 C35.38681198 1.66281265 34.34784271 1.64203156 33.27738953 1.62062073 C29.95582747 1.55519344 26.63418584 1.49627179 23.3125 1.4375 C21.0618407 1.39430831 18.81118948 1.35069381 16.56054688 1.30664062 C11.0404489 1.19951902 5.52027163 1.09773984 0 1 C0 0.67 0 0.34 0 0 Z " fill="#0B3E54" transform="translate(77,10)"/>
<path d="M0 0 C0 0.33 0 0.66 0 1 C2.31 1.33 4.62 1.66 7 2 C7 2.33 7 2.66 7 3 C-6.2 3 -19.4 3 -33 3 C-33 2.67 -33 2.34 -33 2 C-29.00043584 1.66129817 -25.00028974 1.33001275 -21 1 C-19.87464844 0.90460938 -18.74929687 0.80921875 -17.58984375 0.7109375 C-11.70349155 0.22901393 -5.9059119 -0.11580219 0 0 Z " fill="#DDE4E7" transform="translate(115,148)"/>
<path d="M0 0 C3.53571429 0.53571429 3.53571429 0.53571429 5 2 C5.125 5 5.125 5 5 8 C4 9 4 9 1.5 9.125 C-1 9 -1 9 -2 8 C-2.1875 5.0625 -2.1875 5.0625 -2 2 C-1.34 1.34 -0.68 0.68 0 0 Z " fill="#F5F7F8" transform="translate(94,129)"/>
<path d="M0 0 C0.66 0 1.32 0 2 0 C3.72206188 2.99126319 4.24179923 5.10685713 4.1953125 8.546875 C4.18886719 9.39121094 4.18242187 10.23554688 4.17578125 11.10546875 C4.15902344 11.97816406 4.14226562 12.85085937 4.125 13.75 C4.11597656 14.63816406 4.10695312 15.52632812 4.09765625 16.44140625 C4.07414577 18.62788058 4.04128499 20.81380094 4 23 C3.67 23 3.34 23 3 23 C2.86722656 21.75863281 2.73445312 20.51726563 2.59765625 19.23828125 C2.41938849 17.59634139 2.24099654 15.95441501 2.0625 14.3125 C1.97548828 13.49587891 1.88847656 12.67925781 1.79882812 11.83789062 C1.36241272 7.84549781 0.88697624 3.92347148 0 0 Z " fill="#CCD7DB" transform="translate(133,16)"/>
<path d="M0 0 C-0.33 0.66 -0.66 1.32 -1 2 C-7.23804027 3.77603255 -13.55005923 4.24339399 -20 4 C-20 3.34 -20 2.68 -20 2 C-17.60468244 1.66254646 -15.20885732 1.3299171 -12.8125 1 C-11.80219727 0.85691406 -11.80219727 0.85691406 -10.77148438 0.7109375 C-7.15335423 0.21675387 -3.65203599 -0.11346131 0 0 Z " fill="#2E5869" transform="translate(91,120)"/>
<path d="M0 0 C0.33 0 0.66 0 1 0 C1.21233964 3.60977395 1.19407735 6.44202761 0 9.875 C-2.56158934 12.59668868 -4.34859203 12.76911862 -7.96484375 13.15234375 C-10.37123093 12.97221112 -11.9237515 12.19372676 -14 11 C-13.39671875 10.98582031 -12.7934375 10.97164062 -12.171875 10.95703125 C-6.84063056 10.66875146 -6.84063056 10.66875146 -2.5 7.75 C-1.04263366 5.07816171 -0.34388301 3.0089763 0 0 Z " fill="#2C586B" transform="translate(136,139)"/>
<path d="M0 0 C0.78375 0.144375 1.5675 0.28875 2.375 0.4375 C3.035 1.4275 3.695 2.4175 4.375 3.4375 C3.405625 3.251875 2.43625 3.06625 1.4375 2.875 C0.426875 2.730625 -0.58375 2.58625 -1.625 2.4375 C-3.04077477 3.62174326 -3.04077477 3.62174326 -2.6875 7 C-2.666875 8.134375 -2.64625 9.26875 -2.625 10.4375 C-3.945 10.1075 -5.265 9.7775 -6.625 9.4375 C-6.98837162 6.16715541 -6.91044288 4.82866247 -4.9375 2.125 C-2.625 0.4375 -2.625 0.4375 0 0 Z " fill="#3A6375" transform="translate(95.625,127.5625)"/>
<path d="M0 0 C5.59882089 1.80301012 9.16006759 3.32008238 13 8 C13 8.66 13 9.32 13 10 C12.34 10 11.68 10 11 10 C10.67 8.68 10.34 7.36 10 6 C9.34 6 8.68 6 8 6 C7.67 6.66 7.34 7.32 7 8 C6.236875 7.21625 5.47375 6.4325 4.6875 5.625 C2.09108195 2.92742283 2.09108195 2.92742283 -1 1 C-0.67 0.67 -0.34 0.34 0 0 Z " fill="#1F4E62" transform="translate(125,10)"/>
<path d="M0 0 C0.98871094 -0.01417969 1.97742188 -0.02835938 2.99609375 -0.04296875 C5.5625 0.1875 5.5625 0.1875 7.5625 2.1875 C3.30449462 3.60683513 -0.66661538 3.91401677 -4.875 2.1875 C-5.390625 1.8575 -5.90625 1.5275 -6.4375 1.1875 C-4.69900372 -0.55099628 -2.3588363 0.01533704 0 0 Z " fill="#F1F4F5" transform="translate(96.4375,15.8125)"/>
<path d="M0 0 C0.33 0 0.66 0 1 0 C1.66 3.63 2.32 7.26 3 11 C2.01 11 1.02 11 0 11 C-1.28571429 3.57142857 -1.28571429 3.57142857 0 0 Z " fill="#1C4C60" transform="translate(59,131)"/>
</svg>
