<?xml version="1.0" encoding="UTF-8"?>
<svg version="1.1" xmlns="http://www.w3.org/2000/svg" width="235" height="179">
<path d="M0 0 C77.55 0 155.1 0 235 0 C235 59.07 235 118.14 235 179 C157.45 179 79.9 179 0 179 C0 119.93 0 60.86 0 0 Z " fill="#FEFEFE" transform="translate(0,0)"/>
<path d="M0 0 C8.79133413 6.49002444 15.42233996 16.48205854 17.66796875 27.203125 C19.5981544 42.41528123 16.74985509 54.50903331 8.19921875 67.32421875 C6.8143387 69.36485541 6.8143387 69.36485541 7.0625 72.3125 C10.07281744 73.24673645 10.92900268 73.35699911 14.0625 72.3125 C14.44019531 72.75078125 14.81789063 73.1890625 15.20703125 73.640625 C22.40466312 81.93391511 29.87124926 89.98126485 37.37402344 97.99780273 C39.16585637 99.91434994 40.95217157 101.83593267 42.73828125 103.7578125 C44.77341032 105.94500819 46.82825738 108.10716067 48.91796875 110.2421875 C52.31943018 113.80047306 54.73592841 116.37943831 56.375 121.0625 C55.9561718 125.41831329 55.06947194 127.09573932 52.0625 130.3125 C44.15500745 135.41368508 44.15500745 135.41368508 40.04296875 135.21484375 C32.3612286 131.7148793 26.42854977 122.47704734 21.27734375 116.03125 C19.11544156 113.37748647 16.87005136 110.84000859 14.5625 108.3125 C9.8567726 103.14445552 5.41337697 97.78167467 1.0625 92.3125 C0.47082031 91.60867187 -0.12085937 90.90484375 -0.73046875 90.1796875 C-1.9375 88.3125 -1.9375 88.3125 -1.375 85.3125 C-1.1584375 83.8275 -1.1584375 83.8275 -0.9375 82.3125 C-2.75037195 79.91454619 -2.75037195 79.91454619 -4.9375 78.3125 C-6.82552083 79.06119792 -8.71354167 79.80989583 -10.6015625 80.55859375 C-21.17463254 83.97097254 -33.08175826 83.71713534 -43.08984375 78.921875 C-56.24406274 71.48766619 -65.11781267 61.77156198 -69.9375 47.3125 C-70.89196104 31.32136586 -69.54719535 18.05762132 -58.9375 5.3125 C-58.3909375 4.65378906 -57.844375 3.99507812 -57.28125 3.31640625 C-42.53298382 -12.85798945 -17.36200136 -10.39942402 0 0 Z " fill="#DEE7ED" transform="translate(125.9375,24.6875)"/>
<path d="M0 0 C8.79133413 6.49002444 15.42233996 16.48205854 17.66796875 27.203125 C19.5981544 42.41528123 16.74985509 54.50903331 8.19921875 67.32421875 C6.8143387 69.36485541 6.8143387 69.36485541 7.0625 72.3125 C10.07281744 73.24673645 10.92900268 73.35699911 14.0625 72.3125 C14.44019531 72.75078125 14.81789063 73.1890625 15.20703125 73.640625 C22.40466312 81.93391511 29.87124926 89.98126485 37.37402344 97.99780273 C39.16585637 99.91434994 40.95217157 101.83593267 42.73828125 103.7578125 C44.77341032 105.94500819 46.82825738 108.10716067 48.91796875 110.2421875 C52.31943018 113.80047306 54.73592841 116.37943831 56.375 121.0625 C55.9561718 125.41831329 55.06947194 127.09573932 52.0625 130.3125 C44.15500745 135.41368508 44.15500745 135.41368508 40.04296875 135.21484375 C32.3612286 131.7148793 26.42854977 122.47704734 21.27734375 116.03125 C19.11544156 113.37748647 16.87005136 110.84000859 14.5625 108.3125 C9.8567726 103.14445552 5.41337697 97.78167467 1.0625 92.3125 C0.47082031 91.60867187 -0.12085937 90.90484375 -0.73046875 90.1796875 C-1.9375 88.3125 -1.9375 88.3125 -1.375 85.3125 C-1.1584375 83.8275 -1.1584375 83.8275 -0.9375 82.3125 C-2.75037195 79.91454619 -2.75037195 79.91454619 -4.9375 78.3125 C-6.82552083 79.06119792 -8.71354167 79.80989583 -10.6015625 80.55859375 C-21.17463254 83.97097254 -33.08175826 83.71713534 -43.08984375 78.921875 C-56.24406274 71.48766619 -65.11781267 61.77156198 -69.9375 47.3125 C-70.89196104 31.32136586 -69.54719535 18.05762132 -58.9375 5.3125 C-58.3909375 4.65378906 -57.844375 3.99507812 -57.28125 3.31640625 C-42.53298382 -12.85798945 -17.36200136 -10.39942402 0 0 Z M-56.88671875 6.5 C-65.16663628 17.42015154 -68.48441225 29.81016543 -67.22851562 43.33642578 C-65.60944367 54.33035903 -58.60208523 63.65376366 -50.28515625 70.640625 C-39.84088633 78.07847446 -29.54406312 80.77329181 -16.90625 78.8515625 C-6.65927776 76.60673611 1.35023511 72.44683464 7.52734375 63.81640625 C14.72746943 52.07268981 16.85168805 39.93128115 15.0625 26.3125 C12.2505748 15.99498879 5.31987776 6.85972232 -3.5625 1.0625 C-21.68773284 -8.92821569 -42.4562241 -9.69454309 -56.88671875 6.5 Z " fill="#F4F6F7" transform="translate(125.9375,24.6875)"/>
<path d="M0 0 C9.11150694 5.4762653 16.72188513 15.36606994 19.34375 25.68359375 C21.14639948 41.40748554 18.08227989 53.86459306 9.15625 66.87109375 C0.82514983 75.20219392 -9.70367532 78.66842365 -21.34375 79.05859375 C-33.46117766 78.65873602 -43.68125852 72.29939063 -52.35546875 64.21875 C-60.74459111 54.97504811 -63.34903129 44.29342432 -63.02734375 32.14453125 C-62.35125399 20.93732094 -57.23782083 10.83213423 -49.65625 2.68359375 C-34.59178508 -10.21549986 -16.83330501 -8.34238792 0 0 Z M-49.65625 8.68359375 C-57.46089163 19.38441564 -61.1229115 30.4231594 -59.65625 43.68359375 C-57.3010634 54.45613366 -50.99141763 62.6747087 -42.171875 69.109375 C-32.58027923 75.11156925 -24.20286027 76.96939366 -13.15625 74.99609375 C-2.54965161 72.26494143 4.85709816 66.90763735 10.65625 57.5703125 C15.97713233 47.49584779 17.09695427 35.77772845 14.69140625 24.671875 C11.1640753 15.02848525 4.5143704 7.28288355 -4.65625 2.68359375 C-19.6770473 -3.72820935 -38.1315407 -4.48345741 -49.65625 8.68359375 Z " fill="#D4DFE6" transform="translate(121.65625,25.31640625)"/>
<path d="M0 0 C8.79133413 6.49002444 15.42233996 16.48205854 17.66796875 27.203125 C19.60647522 42.48085918 16.47206491 54.23389278 8.58984375 67.421875 C6.91557122 69.49437604 5.51115869 70.32250466 3.0625 71.3125 C3.0625 71.9725 3.0625 72.6325 3.0625 73.3125 C1.41916496 74.35039581 -0.24993867 75.34817924 -1.9375 76.3125 C-2.5975 76.9725 -3.2575 77.6325 -3.9375 78.3125 C-5.890625 79.12890625 -5.890625 79.12890625 -8.1875 79.875 C-8.93515625 80.12378906 -9.6828125 80.37257813 -10.453125 80.62890625 C-22.69822407 83.99823382 -34.81307338 83.59955592 -45.9375 77.3125 C-57.74765345 70.09779802 -65.54612368 60.48662896 -69.9375 47.3125 C-70.89196104 31.32136586 -69.54719535 18.05762132 -58.9375 5.3125 C-58.3909375 4.65378906 -57.844375 3.99507812 -57.28125 3.31640625 C-42.53298382 -12.85798945 -17.36200136 -10.39942402 0 0 Z M-56.88671875 6.5 C-65.16663628 17.42015154 -68.48441225 29.81016543 -67.22851562 43.33642578 C-65.60944367 54.33035903 -58.60208523 63.65376366 -50.28515625 70.640625 C-39.84088633 78.07847446 -29.54406312 80.77329181 -16.90625 78.8515625 C-6.65927776 76.60673611 1.35023511 72.44683464 7.52734375 63.81640625 C14.72746943 52.07268981 16.85168805 39.93128115 15.0625 26.3125 C12.2505748 15.99498879 5.31987776 6.85972232 -3.5625 1.0625 C-21.68773284 -8.92821569 -42.4562241 -9.69454309 -56.88671875 6.5 Z " fill="#14455B" transform="translate(125.9375,24.6875)"/>
<path d="M0 0 C0.825 0.66 1.65 1.32 2.5 2 C3.30050781 2.59039062 4.10101563 3.18078125 4.92578125 3.7890625 C7.64634052 6.12568852 9.29589424 8.33992918 11.1875 11.375 C11.76886719 12.29023437 12.35023438 13.20546875 12.94921875 14.1484375 C17.72986988 22.93905544 17.86822186 33.55536409 15.8125 43.23828125 C12.43922637 53.17538315 6.60845065 62.06068099 -2.69921875 67.21875 C-7.2694363 69.39134917 -11.41331902 70.64303993 -16.5 71 C-17.60601562 71.11214844 -17.60601562 71.11214844 -18.734375 71.2265625 C-28.8831138 71.84065816 -37.81985838 67.3670031 -45.46875 60.9375 C-54.03728024 52.76444039 -58.59570185 43.9333165 -59 32 C-58.64146041 21.05259127 -54.29924716 9.71317299 -46.39453125 1.92578125 C-33.21495017 -8.89463213 -14.52511002 -9.31381101 0 0 Z M-48.5 8 C-55.16793054 17.52079196 -57.06112685 28.52753289 -55.5 40 C-51.13728571 52.78315069 -43.7761158 59.55247527 -32.015625 65.8359375 C-24.36295325 69.37708064 -15.56559574 69.01107423 -7.6875 66.3125 C2.04842911 62.28383968 7.35680914 56.87025619 11.76171875 47.2421875 C15.40303243 37.65978307 16.61326459 27.96791456 12.34375 18.38793945 C6.64455796 6.90818222 -0.55195599 1.57670763 -12.28515625 -3.11328125 C-26.93339424 -7.15356074 -38.89537169 -3.59959394 -48.5 8 Z " fill="#194A5F" transform="translate(120.5,30)"/>
<path d="M0 0 C0.71929687 -0.00773437 1.43859375 -0.01546875 2.1796875 -0.0234375 C7.49647556 -0.00352444 7.49647556 -0.00352444 9.75 2.25 C4.74008474 3.84890913 -0.18738248 5.29336096 -5.375 6.1875 C-12.87707299 7.61254055 -20.21002192 11.00355542 -24.74609375 17.33984375 C-31.92045072 28.66495088 -35.52781235 39.8313672 -32.58984375 53.26953125 C-29.01307555 64.34048045 -22.05401807 71.32160716 -12.25 77.25 C-11.51136719 77.58128906 -10.77273437 77.91257812 -10.01171875 78.25390625 C-8.25 79.25 -8.25 79.25 -7.25 82.25 C-15.97261798 80.91522216 -23.89131519 75.14160932 -29.25 68.25 C-36.85731983 56.19775658 -39.47257311 44.40147348 -36.41015625 30.4140625 C-32.41516372 18.22731763 -25.69479725 8.40292391 -14.25 2.25 C-9.40168691 0.21968401 -5.16608069 -0.05677012 0 0 Z " fill="#F0F3F5" transform="translate(96.25,18.75)"/>
<path d="M0 0 C7.03823269 2.20925657 9.98301489 8.20225327 13.30078125 14.44921875 C18.575592 25.74690432 17.50945642 36.30181193 14 48 C11.19162411 55.22153799 6.9525304 61.09121734 2 67 C0.68 65.68 -0.64 64.36 -2 63 C-1.62488281 62.50113281 -1.24976563 62.00226563 -0.86328125 61.48828125 C8.1557466 48.83438071 11.1612802 35.67889532 9.76171875 20.3984375 C8.40559561 12.86442005 4.19306227 6.2895934 0 0 Z " fill="#D8E3E9" transform="translate(133,32)"/>
<path d="M0 0 C6.088662 4.8709296 11.20010859 10.47923031 16.40966797 16.25244141 C18.68627966 18.754128 20.99802273 21.22215066 23.31152344 23.68969727 C25.10481046 25.60345416 26.89063026 27.52396808 28.67578125 29.4453125 C30.71091032 31.63250819 32.76575738 33.79466067 34.85546875 35.9296875 C38.25693018 39.48797306 40.67342841 42.06693831 42.3125 46.75 C41.8936718 51.10581329 41.00697194 52.78323932 38 56 C30.09250745 61.10118508 30.09250745 61.10118508 25.98046875 60.90234375 C18.2987286 57.4023793 12.36604977 48.16454734 7.21484375 41.71875 C5.05294156 39.06498647 2.80755136 36.52750859 0.5 34 C-12.43967419 19.76408428 -12.43967419 19.76408428 -15 14 C-7.32467217 20.2055842 -1.02909682 27.43237898 5.125 35.125 C9.18092285 40.12132266 13.44858897 44.89576757 17.8125 49.625 C18.45912598 50.33672363 19.10575195 51.04844727 19.77197266 51.78173828 C20.38991699 52.44415527 21.00786133 53.10657227 21.64453125 53.7890625 C22.19471924 54.38412598 22.74490723 54.97918945 23.31176758 55.59228516 C25.2295064 57.19137149 26.53905128 57.67331156 29 58 C31.15097364 57.34149043 31.15097364 57.34149043 33.1875 56.1875 C33.88230469 55.83042969 34.57710937 55.47335938 35.29296875 55.10546875 C37.16122795 54.10059257 37.16122795 54.10059257 38 52 C38.60901856 49.07671093 38.80112214 47.80651175 38 45 C35.32490425 41.35214215 32.17085706 38.21688563 29 35 C27.88385852 33.76068074 26.77868657 32.51134686 25.6875 31.25 C25.130625 30.61191406 24.57375 29.97382813 24 29.31640625 C22.41031458 27.47522763 20.82800444 25.62850547 19.25 23.77734375 C18.22919318 22.58070655 17.20835911 21.3840926 16.1875 20.1875 C15.67695068 19.58808594 15.16640137 18.98867187 14.64038086 18.37109375 C10.47192477 13.49837796 6.15927308 8.77935315 1.765625 4.109375 C0 2 0 2 0 0 Z " fill="#204F63" transform="translate(140,99)"/>
<path d="M0 0 C1.53515625 0.984375 1.53515625 0.984375 4.03515625 2.984375 C4.83566406 3.57476562 5.63617188 4.16515625 6.4609375 4.7734375 C9.18149677 7.11006352 10.83105049 9.32430418 12.72265625 12.359375 C13.30402344 13.27460937 13.88539063 14.18984375 14.484375 15.1328125 C18.31934406 22.18451884 18.31934406 22.18451884 17.66015625 26.359375 C17.45390625 26.895625 17.24765625 27.431875 17.03515625 27.984375 C17.03515625 26.994375 17.03515625 26.004375 17.03515625 24.984375 C16.37515625 24.984375 15.71515625 24.984375 15.03515625 24.984375 C14.63425781 24.0665625 14.23335938 23.14875 13.8203125 22.203125 C9.0389296 11.69353652 3.88398852 4.86770224 -6.96484375 -0.015625 C-15.56031573 -2.99525395 -27.04289584 -4.27020853 -35.58984375 -0.453125 C-43.9049769 4.86707205 -49.88934381 12.79736067 -52.21484375 22.421875 C-53.11662189 27.23702996 -53.57767643 32.10402907 -53.96484375 36.984375 C-54.29484375 36.984375 -54.62484375 36.984375 -54.96484375 36.984375 C-55.29484375 35.334375 -55.62484375 33.684375 -55.96484375 31.984375 C-56.29484375 31.984375 -56.62484375 31.984375 -56.96484375 31.984375 C-57.13804418 21.24594808 -52.06201938 10.90932828 -44.96484375 2.984375 C-42.81640625 1.25390625 -42.81640625 1.25390625 -40.58984375 -0.203125 C-39.86023438 -0.69167969 -39.130625 -1.18023438 -38.37890625 -1.68359375 C-26.66416485 -8.147553 -11.53432196 -5.96207497 0 0 Z " fill="#1C4B60" transform="translate(118.96484375,29.015625)"/>
<path d="M0 0 C2.5 0.25 2.5 0.25 4.5 2.25 C4.29721569 4.14265352 4.08290302 6.03492469 3.8046875 7.91796875 C2.62364035 16.95752194 3.33582118 26.50373177 8.5 34.25 C4.75502546 34.03600145 3.57843077 33.32843077 0.875 30.625 C-4.11453124 24.56389158 -4.96653295 18.49743729 -4.8125 10.9375 C-4.81572266 10.12732422 -4.81894531 9.31714844 -4.82226562 8.48242188 C-4.74892439 0.47489244 -4.74892439 0.47489244 0 0 Z " fill="#436B7D" transform="translate(74.5,48.75)"/>
<path d="M0 0 C2.03489175 0.50872294 4.0545937 1.01654354 6.0625 1.625 C8.20541252 2.20416064 8.20541252 2.20416064 11 1 C11 1.66 11 2.32 11 3 C9.47047124 4.37482452 7.87477094 5.67665897 6.25 6.9375 C5.36828125 7.62714844 4.4865625 8.31679687 3.578125 9.02734375 C2.00336975 10.23227012 0.41290093 11.41742328 -1.203125 12.56640625 C-3.25722801 14.05600181 -3.25722801 14.05600181 -5 17 C-4.79375 16.071875 -4.5875 15.14375 -4.375 14.1875 C-3.63307034 10.84826598 -3.63307034 10.84826598 -6 8 C-5.9375 5.9375 -5.9375 5.9375 -5 4 C-2.4375 2.75 -2.4375 2.75 0 2 C0 1.34 0 0.68 0 0 Z " fill="#225064" transform="translate(129,96)"/>
<path d="M0 0 C6.17732899 4.9418632 11.38770178 10.62541093 16.65087891 16.49804688 C17.87843907 17.86466833 19.11639948 19.22192977 20.35546875 20.578125 C26.10594528 26.88838243 31.57611409 33.40980876 37 40 C34 40 34 40 31.43359375 37.54296875 C30.42651266 36.43202134 29.4283515 35.31294648 28.4375 34.1875 C27.90664795 33.59727051 27.3757959 33.00704102 26.82885742 32.39892578 C25.73732729 31.18488196 24.64887416 29.96806477 23.56347656 28.74853516 C21.34197676 26.26409081 19.07332709 23.82363874 16.8125 21.375 C12.67239242 16.82088166 8.75707916 12.11591736 4.91015625 7.3125 C3.10189882 5.03384513 3.10189882 5.03384513 1.24609375 3.3125 C0 2 0 2 0 0 Z " fill="#1D4D61" transform="translate(138,108)"/>
<path d="M0 0 C0.98484375 0.10183594 1.9696875 0.20367188 2.984375 0.30859375 C4.10585937 0.43427734 4.10585937 0.43427734 5.25 0.5625 C5.25 0.8925 5.25 1.2225 5.25 1.5625 C3.81720703 1.65724609 3.81720703 1.65724609 2.35546875 1.75390625 C-7.62921925 2.69961449 -15.80416788 4.72683198 -22.6171875 12.765625 C-24.18532894 14.87810916 -24.18532894 14.87810916 -25.43359375 16.9609375 C-27.06491357 18.94562927 -28.25445522 19.19161224 -30.75 19.5625 C-28.08866047 11.68937055 -21.7084834 6.26800858 -14.4375 2.5625 C-9.29212575 0.17623948 -5.67721407 -0.60827294 0 0 Z " fill="#275468" transform="translate(93.75,17.4375)"/>
<path d="M0 0 C5.25317321 4.28830466 9.60857566 8.85080389 14 14 C19.00149807 19.67982059 24.08129189 25.18844141 29.56640625 30.40625 C31 32 31 32 31 34 C22.43296922 30.4156331 15.88768809 20.98164266 10 14 C9.11596463 12.96868209 8.23184351 11.93743769 7.34765625 10.90625 C6.41867521 9.81300585 5.49028861 8.7192563 4.5625 7.625 C4.11261719 7.1005127 3.66273438 6.57602539 3.19921875 6.03564453 C0 2.22912067 0 2.22912067 0 0 Z " fill="#235165" transform="translate(137,118)"/>
<path d="M0 0 C0.99 0 1.98 0 3 0 C2.96519531 1.66675781 2.96519531 1.66675781 2.9296875 3.3671875 C2.81304798 11.47454508 2.82943645 19.11232711 5 27 C1.05038357 23.57699909 -0.71009479 20.30360909 -1.17285156 15.03027344 C-1.23149314 12.91221926 -1.22412515 10.80597584 -1.1875 8.6875 C-1.18685547 7.95982422 -1.18621094 7.23214844 -1.18554688 6.48242188 C-1.14074248 1.14074248 -1.14074248 1.14074248 0 0 Z " fill="#DAE4EA" transform="translate(73,51)"/>
<path d="M0 0 C0.33 0 0.66 0 1 0 C1 2.64 1 5.28 1 8 C0.34 8 -0.32 8 -1 8 C-0.67 14.27 -0.34 20.54 0 27 C-0.66 27 -1.32 27 -2 27 C-5.34602605 21.61436444 -4.46202446 15.09464622 -4 9 C-3.23111859 5.80726683 -2.388944 2.388944 0 0 Z " fill="#F5F7F8" transform="translate(69,47)"/>
<path d="M0 0 C0.33 0 0.66 0 1 0 C1 3.96 1 7.92 1 12 C1.66 12 2.32 12 3 12 C1.89764589 20.41970467 -1.23186945 27.44003997 -5 35 C-6.14453125 33.33984375 -6.14453125 33.33984375 -7 31 C-6.13671875 28.37890625 -6.13671875 28.37890625 -4.6875 25.5625 C-1.55502082 19.39194513 -0.83804735 14.04933573 -0.4375 7.1875 C-0.37272461 6.14819336 -0.37272461 6.14819336 -0.30664062 5.08789062 C-0.20138547 3.39211314 -0.10027137 1.69607948 0 0 Z " fill="#17485D" transform="translate(141,55)"/>
<path d="M0 0 C3.27717156 4.91575734 2.53101826 10.25476631 2 16 C0.66806936 21.36708998 -0.75004057 26.27367454 -5 30 C-5.33 29.34 -5.66 28.68 -6 28 C-5.26852471 25.89477845 -4.4630787 23.81509999 -3.625 21.75 C-0.81533858 14.48254641 -0.13059015 7.81166533 0 0 Z " fill="#12445A" transform="translate(135,54)"/>
<path d="M0 0 C1.28573642 3.85720926 0.41793292 4.84502377 -1.3125 8.4375 C-1.76238281 9.38496094 -2.21226563 10.33242188 -2.67578125 11.30859375 C-3.77537723 13.54346583 -4.87980589 15.77538916 -6 18 C-6.66 17.34 -7.32 16.68 -8 16 C-7.75613092 10.8787493 -5.78380467 6.26210095 -3 2 C-2.01 1.34 -1.02 0.68 0 0 Z " fill="#1C4C60" transform="translate(65,35)"/>
<path d="M0 0 C1.32 0.66 2.64 1.32 4 2 C3.8125 3.8125 3.8125 3.8125 3 6 C0.4375 7.75 0.4375 7.75 -2 9 C-3.32 7.35 -4.64 5.7 -6 4 C-4.02 2.68 -2.04 1.36 0 0 Z " fill="#D2DEE5" transform="translate(129,97)"/>
<path d="M0 0 C4.64951972 3.71961578 8.73847091 7.74103364 12.75 12.125 C13.22155518 12.6396582 13.69311035 13.15431641 14.17895508 13.68457031 C16.60103252 16.35953287 18.8955249 19.06776469 21 22 C18 22 18 22 15.29296875 19.40234375 C14.24903472 18.25532375 13.21431828 17.09986715 12.1875 15.9375 C11.65286133 15.34348389 11.11822266 14.74946777 10.56738281 14.13745117 C9.0369293 12.4318955 7.51795256 10.71667588 6 9 C5.30003906 8.22398438 4.60007813 7.44796875 3.87890625 6.6484375 C0 2.27652878 0 2.27652878 0 0 Z " fill="#255266" transform="translate(140,99)"/>
<path d="M0 0 C0.66 0 1.32 0 2 0 C1.835 1.11375 1.67 2.2275 1.5 3.375 C0.59702735 10.66327926 0.74279155 17.77105143 2 25 C1.34 25 0.68 25 0 25 C-2.3823404 16.81070488 -2.57039018 9.3754143 -1 1 C-0.67 0.67 -0.34 0.34 0 0 Z " fill="#4B7183" transform="translate(77,51)"/>
<path d="M0 0 C4.68207822 3.74566258 8.85443094 7.80953163 12.9375 12.1875 C13.43419189 12.71053711 13.93088379 13.23357422 14.44262695 13.77246094 C18 17.64373812 18 17.64373812 18 21 C12.82535867 17.15218978 9.05013312 12.56579824 5.05078125 7.5234375 C3.13088224 5.05835048 3.13088224 5.05835048 1.23046875 3.2890625 C0 2 0 2 0 0 Z " fill="#215064" transform="translate(138,108)"/>
<path d="M0 0 C-0.144375 1.27875 -0.28875 2.5575 -0.4375 3.875 C-0.99814645 8.91280884 -1.50501531 13.95536879 -2 19 C-2.33 19 -2.66 19 -3 19 C-3.33 17.35 -3.66 15.7 -4 14 C-4.33 14 -4.66 14 -5 14 C-4.85851011 12.3954444 -4.71164314 10.79136233 -4.5625 9.1875 C-4.48128906 8.29417969 -4.40007813 7.40085937 -4.31640625 6.48046875 C-4 4 -4 4 -3 1 C-1 0 -1 0 0 0 Z " fill="#245266" transform="translate(67,47)"/>
<path d="M0 0 C0.99 0.33 1.98 0.66 3 1 C-0.27530896 5.63720719 -3.30435607 9.68542782 -8 13 C-8.33 12.34 -8.66 11.68 -9 11 C-7.71937515 9.2925002 -6.38232443 7.62626404 -5 6 C-4.34 6 -3.68 6 -3 6 C-2.690625 5.38125 -2.38125 4.7625 -2.0625 4.125 C-1.375 2.75 -0.6875 1.375 0 0 Z " fill="#204F63" transform="translate(128,83)"/>
<path d="M0 0 C5.96260189 4.82082706 10.96679794 10.22494276 16 16 C15.34 16.66 14.68 17.32 14 18 C11.84670427 15.56900368 9.70370597 13.12914744 7.5625 10.6875 C6.64500977 9.65206055 6.64500977 9.65206055 5.70898438 8.59570312 C5.12568359 7.92861328 4.54238281 7.26152344 3.94140625 6.57421875 C3.40201416 5.96151123 2.86262207 5.34880371 2.30688477 4.7175293 C1 3 1 3 0 0 Z " fill="#2A576A" transform="translate(125,113)"/>
<path d="M0 0 C5.12527635 4.18389906 10.17619795 8.54904814 14 14 C14 14.99 14 15.98 14 17 C10.17956942 14.13637353 7.19625773 11.0773188 4.1875 7.375 C3.39730469 6.41335937 2.60710937 5.45171875 1.79296875 4.4609375 C0 2 0 2 0 0 Z " fill="#2E5A6D" transform="translate(137,118)"/>
<path d="M0 0 C1.35158203 0.15275391 1.35158203 0.15275391 2.73046875 0.30859375 C3.41753906 0.39238281 4.10460937 0.47617187 4.8125 0.5625 C4.8125 0.8925 4.8125 1.2225 4.8125 1.5625 C4.08804688 1.59988281 3.36359375 1.63726563 2.6171875 1.67578125 C-3.1137793 2.06548699 -7.07147814 2.81731754 -12.1875 5.5625 C-14.34765625 5.1484375 -14.34765625 5.1484375 -16.1875 4.5625 C-14.917947 3.91415346 -13.64680294 3.26892185 -12.375 2.625 C-11.66730469 2.26535156 -10.95960937 1.90570312 -10.23046875 1.53515625 C-6.48638194 -0.24740133 -4.06223029 -0.47480614 0 0 Z " fill="#456D7E" transform="translate(94.1875,24.4375)"/>
<path d="M0 0 C0.78375 0.04125 1.5675 0.0825 2.375 0.125 C2.375 1.115 2.375 2.105 2.375 3.125 C1.055 3.125 -0.265 3.125 -1.625 3.125 C-2.285 7.415 -2.945 11.705 -3.625 16.125 C-3.955 16.125 -4.285 16.125 -4.625 16.125 C-4.67884521 13.83358714 -4.71772087 11.54181812 -4.75 9.25 C-4.77320312 7.97382812 -4.79640625 6.69765625 -4.8203125 5.3828125 C-4.58068665 1.38585332 -4.11348722 0.19588034 0 0 Z " fill="#1D4C61" transform="translate(74.625,48.875)"/>
<path d="M0 0 C0.99 0 1.98 0 3 0 C3.70133599 1.57725347 4.385583 3.16211333 5.0625 4.75 C5.44535156 5.63171875 5.82820312 6.5134375 6.22265625 7.421875 C7.04600008 10.15256309 6.9773992 11.36901347 6 14 C6 13.01 6 12.02 6 11 C5.34 11 4.68 11 4 11 C3.32880451 9.5437455 2.66318193 8.08492133 2 6.625 C1.62875 5.81289063 1.2575 5.00078125 0.875 4.1640625 C0 2 0 2 0 0 Z " fill="#245266" transform="translate(130,43)"/>
<path d="M0 0 C0.33 0 0.66 0 1 0 C1 3.96 1 7.92 1 12 C1.66 12 2.32 12 3 12 C2.67 13.98 2.34 15.96 2 18 C1.01 18 0.02 18 -1 18 C-0.505 9.09 -0.505 9.09 0 0 Z " fill="#3B6577" transform="translate(141,55)"/>
<path d="M0 0 C1.485 0.99 1.485 0.99 3 2 C3.66 1.67 4.32 1.34 5 1 C6.32 3.31 7.64 5.62 9 8 C5.81390075 7.64598897 4.20933322 7.16972964 1.6875 5.125 C0 3 0 3 0 0 Z " fill="#1D4C61" transform="translate(74,75)"/>
<path d="M0 0 C0.66 0.33 1.32 0.66 2 1 C1.0980639 2.48819457 0.17785871 3.96532813 -0.75 5.4375 C-1.26046875 6.26121094 -1.7709375 7.08492187 -2.296875 7.93359375 C-4.1792182 10.21744593 -5.1157546 10.65514457 -8 11 C-6.52670958 5.99081256 -3.72484762 3.48192278 0 0 Z " fill="#F0F3F5" transform="translate(78,32)"/>
<path d="M0 0 C0.66 0 1.32 0 2 0 C3.7265625 1.75 3.7265625 1.75 5.625 4 C6.25664062 4.7425 6.88828125 5.485 7.5390625 6.25 C8.02117187 6.8275 8.50328125 7.405 9 8 C8.34 8.66 7.68 9.32 7 10 C5.82739389 8.71372289 4.6620717 7.42080217 3.5 6.125 C2.8503125 5.40570313 2.200625 4.68640625 1.53125 3.9453125 C0 2 0 2 0 0 Z " fill="#19495E" transform="translate(160,121)"/>
<path d="M0 0 C-1.04874998 2.62187494 -1.64931313 3.79371361 -4.125 5.25 C-4.74375 5.4975 -5.3625 5.745 -6 6 C-6.66 5.01 -7.32 4.02 -8 3 C-3.375 0 -3.375 0 0 0 Z " fill="#F1F4F5" transform="translate(133,100)"/>
<path d="M0 0 C2.03833424 1.2739589 4.03852126 2.61061923 6 4 C6 4.66 6 5.32 6 6 C5.01 6.66 4.02 7.32 3 8 C2.34 8.99 1.68 9.98 1 11 C1.20625 10.113125 1.4125 9.22625 1.625 8.3125 C2.02550239 4.7747289 1.56683516 3.13367033 0 0 Z " fill="#2F5B6E" transform="translate(123,102)"/>
<path d="M0 0 C1.12588014 0.95729916 2.2506715 1.91587895 3.375 2.875 C4.00148437 3.40867187 4.62796875 3.94234375 5.2734375 4.4921875 C6.55836651 5.61432007 7.79371975 6.79371975 9 8 C8.67 8.99 8.34 9.98 8 11 C6.66072279 9.54712339 5.32873153 8.08752741 4 6.625 C3.2575 5.81289062 2.515 5.00078125 1.75 4.1640625 C0 2 0 2 0 0 Z " fill="#4D7282" transform="translate(140,99)"/>
<path d="M0 0 C0.33 0.66 0.66 1.32 1 2 C-0.25 5.0625 -0.25 5.0625 -2 8 C-2.99 8.33 -3.98 8.66 -5 9 C-3.90931332 5.22454612 -3.0916909 2.52956528 0 0 Z " fill="#0F4157" transform="translate(70,39)"/>
<path d="M0 0 C1.12894876 0.93274109 2.25300876 1.87140122 3.375 2.8125 C4.00148437 3.33457031 4.62796875 3.85664062 5.2734375 4.39453125 C7 6 7 6 9 9 C6 9 6 9 4.39453125 7.5390625 C3.61142578 6.59160156 3.61142578 6.59160156 2.8125 5.625 C2.28269531 4.99851562 1.75289063 4.37203125 1.20703125 3.7265625 C0 2 0 2 0 0 Z " fill="#355F71" transform="translate(125,113)"/>
<path d="M0 0 C1.12894876 0.93274109 2.25300876 1.87140122 3.375 2.8125 C4.00148437 3.33457031 4.62796875 3.85664062 5.2734375 4.39453125 C7 6 7 6 9 9 C6 9 6 9 4.39453125 7.5390625 C3.61142578 6.59160156 3.61142578 6.59160156 2.8125 5.625 C2.28269531 4.99851562 1.75289062 4.37203125 1.20703125 3.7265625 C0 2 0 2 0 0 Z " fill="#5C7E8D" transform="translate(138,108)"/>
<path d="M0 0 C0.33 0 0.66 0 1 0 C0.67 2.31 0.34 4.62 0 7 C-0.99 7.33 -1.98 7.66 -3 8 C-2.45276317 4.62537285 -1.9451 2.91765 0 0 Z " fill="#0D3F56" transform="translate(141,72)"/>
<path d="M0 0 C0.66 0.33 1.32 0.66 2 1 C0.68 2.32 -0.64 3.64 -2 5 C-2.99 4.67 -3.98 4.34 -5 4 C-3.36587557 2.29159719 -2.13093906 1.06546953 0 0 Z " fill="#13445A" transform="translate(118,93)"/>
</svg>
