<?xml version="1.0" encoding="UTF-8"?>
<svg version="1.1" xmlns="http://www.w3.org/2000/svg" width="216" height="157">
<path d="M0 0 C71.28 0 142.56 0 216 0 C216 51.81 216 103.62 216 157 C144.72 157 73.44 157 0 157 C0 105.19 0 53.38 0 0 Z " fill="#F8F5F3" transform="translate(0,0)"/>
<path d="M0 0 C0.88671875 1.8125 0.88671875 1.8125 1.6875 4 C3.1302677 7.06335629 3.1302677 7.06335629 5.82421875 8.9609375 C8.12921839 9.4263279 9.70154192 9.52459972 12 9 C13.80596514 7.56027954 15.10923322 6.10593207 16.48046875 4.25 C18 3 18 3 20.375 3.15234375 C23.09207458 4.02973242 25.34720389 5.12747689 27.8125 6.5625 C28.60269531 7.01753906 29.39289063 7.47257812 30.20703125 7.94140625 C30.79871094 8.29074219 31.39039062 8.64007813 32 9 C31.44720268 11.98920034 30.77852004 14.62014389 29.75 17.5 C28.74565182 20.90695325 28.74565182 20.90695325 29.75 23.875 C33.27629415 27.20538892 37.30653711 26.90313679 42 27 C45.42857143 35.42857143 45.42857143 35.42857143 45 40 C42.03 40.99 39.06 41.98 36 43 C35.03575569 47.49285072 35.03575569 47.49285072 35 52 C36.25970298 53.570197 36.25970298 53.570197 38 54.6875 C38.99 55.450625 39.98 56.21375 41 57 C41.22089973 62.08069376 38.59747656 65.81052168 36 70 C34.783125 69.855625 33.56625 69.71125 32.3125 69.5625 C31.5803125 69.47613281 30.848125 69.38976562 30.09375 69.30078125 C28 69 28 69 25.3125 68.25 C22.09764539 67.90244815 20.61639929 69.23216264 18 71 C17.34 71 16.68 71 16 71 C16.33 71.99 16.66 72.98 17 74 C17.12781786 76.67394964 17.04391871 79.32095857 17 82 C12.126739 83.5912689 8.19209404 84.21192221 3 84 C2.01 81.03 1.02 78.06 0 75 C-5.74182842 74.22829922 -5.74182842 74.22829922 -10.79296875 76.37109375 C-11.54513672 77.20833984 -11.54513672 77.20833984 -12.3125 78.0625 C-13.6428125 79.5165625 -13.6428125 79.5165625 -15 81 C-18.48003024 80.76751364 -20.94052549 78.87934267 -23.75 76.9375 C-24.54921875 76.38964844 -25.3484375 75.84179688 -26.171875 75.27734375 C-26.77515625 74.85582031 -27.3784375 74.43429688 -28 74 C-27.05240175 68.1790393 -27.05240175 68.1790393 -26.25 65.4375 C-25.83552518 62.91621925 -25.83552518 62.91621925 -26.8125 60.25 C-30.23868475 56.72592426 -34.26349243 57.09775156 -39 57 C-42.62870159 47.58997722 -42.62870159 47.58997722 -41 43 C-38.03 42.01 -35.06 41.02 -32 40 C-31.58106618 34.96479596 -31.58106618 34.96479596 -32 30 C-33.31344394 28.37361702 -33.31344394 28.37361702 -35.0625 27.25 C-36.031875 26.5075 -37.00125 25.765 -38 25 C-38.21152732 20.02910797 -35.88114692 16.90348937 -33 13 C-29.4422448 13.50825074 -25.90672774 14.01768957 -22.375 14.6875 C-18.63079756 15.29255129 -18.63079756 15.29255129 -14 13 C-14 9.37 -14 5.74 -14 2 C-4.22727273 -1.40909091 -4.22727273 -1.40909091 0 0 Z " fill="#DEE7ED" transform="translate(78,63)"/>
<path d="M0 0 C1.51400391 0.01740234 1.51400391 0.01740234 3.05859375 0.03515625 C4.07050781 0.04417969 5.08242187 0.05320312 6.125 0.0625 C6.90746094 0.07410156 7.68992188 0.08570312 8.49609375 0.09765625 C9.81236067 3.71739027 10.49609375 6.19332756 10.49609375 10.09765625 C15.53121274 11.10468005 18.73556413 11.07153438 23.49609375 9.09765625 C24.5080092 10.00115219 25.50528301 10.92106472 26.49609375 11.84765625 C27.05296875 12.358125 27.60984375 12.86859375 28.18359375 13.39453125 C29.49609375 15.09765625 29.49609375 15.09765625 29.49609375 19.09765625 C28.50609375 19.75765625 27.51609375 20.41765625 26.49609375 21.09765625 C26.99109375 24.56265625 26.99109375 24.56265625 27.49609375 28.09765625 C30.13609375 29.08765625 32.77609375 30.07765625 35.49609375 31.09765625 C35.49609375 34.72765625 35.49609375 38.35765625 35.49609375 42.09765625 C33.21744792 42.78125 30.93880208 43.46484375 28.66015625 44.1484375 C26.16424746 45.0113381 26.16424746 45.0113381 24.49609375 48.09765625 C24.87540922 51.13217998 25.74650056 52.47326646 27.49609375 55.09765625 C27.49609375 56.97265625 27.49609375 56.97265625 26.49609375 59.09765625 C24.59549727 60.94033982 22.60547752 62.48195805 20.49609375 64.09765625 C19.93921875 63.80890625 19.38234375 63.52015625 18.80859375 63.22265625 C18.04546875 62.85140625 17.28234375 62.48015625 16.49609375 62.09765625 C15.67109375 61.68515625 14.84609375 61.27265625 13.99609375 60.84765625 C11.5665357 59.90550628 11.5665357 59.90550628 9.30859375 60.53515625 C6.56468309 62.90059647 6.26223332 65.6500282 5.49609375 69.09765625 C1.53609375 69.09765625 -2.42390625 69.09765625 -6.50390625 69.09765625 C-8.50390625 63.47265625 -8.50390625 63.47265625 -8.50390625 60.09765625 C-13.78590218 58.8977758 -13.78590218 58.8977758 -18.50390625 61.09765625 C-22.50390625 61.09765625 -22.50390625 61.09765625 -25.31640625 58.41015625 C-27.50390625 55.09765625 -27.50390625 55.09765625 -27.44140625 52.34765625 C-26.50390625 50.09765625 -26.50390625 50.09765625 -24.50390625 48.09765625 C-24.48014699 46.10449955 -24.48014699 46.10449955 -24.87890625 43.97265625 C-25.08515625 42.69390625 -25.29140625 41.41515625 -25.50390625 40.09765625 C-27.17453125 39.91203125 -27.17453125 39.91203125 -28.87890625 39.72265625 C-32.50390625 39.09765625 -32.50390625 39.09765625 -34.50390625 37.09765625 C-34.69921875 34.93359375 -34.69921875 34.93359375 -34.62890625 32.47265625 C-34.61085938 31.65539062 -34.5928125 30.838125 -34.57421875 29.99609375 C-34.55101563 29.36960937 -34.5278125 28.743125 -34.50390625 28.09765625 C-31.1707915 26.31516445 -28.25909682 25.60972769 -24.50390625 25.09765625 C-23.38732124 20.40799919 -23.69771102 17.56002094 -25.50390625 13.09765625 C-23.64846658 10.89790819 -21.78521018 8.86121744 -19.50390625 7.09765625 C-16.55105628 7.09765625 -15.04792504 7.79164568 -12.50390625 9.22265625 C-9.85412848 10.38193403 -8.23453303 9.85616369 -5.50390625 9.09765625 C-5.37113281 8.53175781 -5.23835938 7.96585938 -5.1015625 7.3828125 C-4.92496094 6.64933594 -4.74835938 5.91585938 -4.56640625 5.16015625 C-4.30537109 4.06380859 -4.30537109 4.06380859 -4.0390625 2.9453125 C-3.22478857 0.13398719 -3.01207255 0.11747553 0 0 Z " fill="#F4F2F0" transform="translate(140.50390625,25.90234375)"/>
<path d="M0 0 C4.26084791 3.40867833 7.64352284 7.62736187 8.59375 13.08203125 C8.77535412 17.88697365 8.58015491 20.96452931 5.4375 24.75 C2.42198586 27.91781283 -0.23474271 29.56102071 -4.6171875 30.0859375 C-10.84281748 30.16514399 -15.01214543 30.18109653 -19.8125 25.75 C-23.500425 21.55339569 -24.23223727 17.61457628 -24.15234375 12.1640625 C-23.45892803 7.23841982 -20.87912538 3.61662937 -17.23828125 0.328125 C-11.67439326 -3.45895027 -5.93094844 -2.63597709 0 0 Z " fill="#F5F3F2" transform="translate(86.8125,88.25)"/>
<path d="M0 0 C0.88671875 1.8125 0.88671875 1.8125 1.6875 4 C3.1302677 7.06335629 3.1302677 7.06335629 5.82421875 8.9609375 C8.12921839 9.4263279 9.70154192 9.52459972 12 9 C13.80596514 7.56027954 15.10923322 6.10593207 16.48046875 4.25 C18 3 18 3 20.375 3.15234375 C23.09207458 4.02973242 25.34720389 5.12747689 27.8125 6.5625 C28.60269531 7.01753906 29.39289063 7.47257812 30.20703125 7.94140625 C30.79871094 8.29074219 31.39039062 8.64007813 32 9 C31.44720268 11.98920034 30.77852004 14.62014389 29.75 17.5 C28.74565182 20.90695325 28.74565182 20.90695325 29.75 23.875 C33.27629415 27.20538892 37.30653711 26.90313679 42 27 C45.42857143 35.42857143 45.42857143 35.42857143 45 40 C42.03 40.99 39.06 41.98 36 43 C35.03575569 47.49285072 35.03575569 47.49285072 35 52 C36.25970298 53.570197 36.25970298 53.570197 38 54.6875 C38.99 55.450625 39.98 56.21375 41 57 C41.22089973 62.08069376 38.59747656 65.81052168 36 70 C34.783125 69.855625 33.56625 69.71125 32.3125 69.5625 C31.5803125 69.47613281 30.848125 69.38976562 30.09375 69.30078125 C28 69 28 69 25.3125 68.25 C22.09764539 67.90244815 20.61639929 69.23216264 18 71 C17.34 71 16.68 71 16 71 C16.33 71.99 16.66 72.98 17 74 C17.12781786 76.67394964 17.04391871 79.32095857 17 82 C12.126739 83.5912689 8.19209404 84.21192221 3 84 C2.01 81.03 1.02 78.06 0 75 C-5.74182842 74.22829922 -5.74182842 74.22829922 -10.79296875 76.37109375 C-11.54513672 77.20833984 -11.54513672 77.20833984 -12.3125 78.0625 C-13.6428125 79.5165625 -13.6428125 79.5165625 -15 81 C-18.48003024 80.76751364 -20.94052549 78.87934267 -23.75 76.9375 C-24.54921875 76.38964844 -25.3484375 75.84179688 -26.171875 75.27734375 C-26.77515625 74.85582031 -27.3784375 74.43429688 -28 74 C-27.05240175 68.1790393 -27.05240175 68.1790393 -26.25 65.4375 C-25.83552518 62.91621925 -25.83552518 62.91621925 -26.8125 60.25 C-30.23868475 56.72592426 -34.26349243 57.09775156 -39 57 C-42.62870159 47.58997722 -42.62870159 47.58997722 -41 43 C-38.03 42.01 -35.06 41.02 -32 40 C-31.58106618 34.96479596 -31.58106618 34.96479596 -32 30 C-33.31344394 28.37361702 -33.31344394 28.37361702 -35.0625 27.25 C-36.031875 26.5075 -37.00125 25.765 -38 25 C-38.21152732 20.02910797 -35.88114692 16.90348937 -33 13 C-29.4422448 13.50825074 -25.90672774 14.01768957 -22.375 14.6875 C-18.63079756 15.29255129 -18.63079756 15.29255129 -14 13 C-14 9.37 -14 5.74 -14 2 C-4.22727273 -1.40909091 -4.22727273 -1.40909091 0 0 Z M-9.25 2 C-10.4875 2.33 -11.725 2.66 -13 3 C-13.00257812 3.75925781 -13.00515625 4.51851563 -13.0078125 5.30078125 C-13.12465438 8.30361751 -13.33488799 11.0674607 -14 14 C-17.08220295 16.52180242 -18.67560032 17.1261333 -22.625 16.75 C-23.800625 16.37875 -23.800625 16.37875 -25 16 C-25.763125 15.814375 -26.52625 15.62875 -27.3125 15.4375 C-27.869375 15.293125 -28.42625 15.14875 -29 15 C-29.66 16.0725 -30.32 17.145 -31 18.25 C-31.37125 18.85328125 -31.7425 19.4565625 -32.125 20.078125 C-33.27624023 22.25479385 -33.27624023 22.25479385 -33 26 C-32.34 26.66 -31.68 27.32 -31 28 C-29.75806452 32.51612903 -29.75806452 32.51612903 -31 35 C-31.039992 36.99960012 -31.04346799 39.00047242 -31 41 C-34.3 41.99 -37.6 42.98 -41 44 C-40.01 47.96 -39.02 51.92 -38 56 C-34.37 56 -30.74 56 -27 56 C-23.63030303 64.42424242 -23.63030303 64.42424242 -26 70 C-26 71.32 -26 72.64 -26 74 C-24.40333011 75.61494643 -24.40333011 75.61494643 -22.25 76.8125 C-21.55390625 77.25207031 -20.8578125 77.69164062 -20.140625 78.14453125 C-17.58511261 79.16580354 -16.51448578 79.05082988 -14 78 C-13.484375 77.319375 -12.96875 76.63875 -12.4375 75.9375 C-8.4611272 72.77679342 -3.89531881 73.69615263 1 74 C1.309375 75.134375 1.61875 76.26875 1.9375 77.4375 C2.62924531 80.78775099 2.62924531 80.78775099 4 82 C5.85772162 81.91015699 7.71247985 81.75388139 9.5625 81.5625 C11.356875 81.376875 13.15125 81.19125 15 81 C15 77.04 15 73.08 15 69 C17.475 68.505 17.475 68.505 20 68 C20.33 67.67 20.66 67.34 21 67 C23.35694954 67.09031574 25.71153582 67.24688128 28.0625 67.4375 C29.35285156 67.53933594 30.64320312 67.64117187 31.97265625 67.74609375 C33.47119141 67.87177734 33.47119141 67.87177734 35 68 C37.93191595 63.73804579 37.93191595 63.73804579 39.0625 58.875 C37.99516515 56.73447008 37.99516515 56.73447008 35.375 54.8125 C33 52 33 52 32.82421875 49.75 C33.42817496 43.57182504 33.42817496 43.57182504 36 41 C38.31765729 40.28072705 40.65095874 39.6090107 43 39 C42.505 34.545 42.505 34.545 42 30 C39.10923157 28.77361339 36.45371633 27.87755711 33.375 27.1875 C30 26 30 26 27.875 23.9375 C26.70696014 20.01622331 27.73743727 17.79688505 29.23828125 14.0859375 C30.17150694 11.90044558 30.17150694 11.90044558 30 9 C24.93360679 5.97628201 24.93360679 5.97628201 19.25 5 C16.85406017 5.85539445 16.85406017 5.85539445 15.375 8.0625 C11.46362948 11.2533549 6.85720038 10.3014814 2 10 C1.01 7.03 0.02 4.06 -1 1 C-4.19892281 1 -6.25408155 1.20108841 -9.25 2 Z " fill="#2D596C" transform="translate(78,63)"/>
<path d="M0 0 C4.37269087 2.1465937 7.22580863 4.40797527 9 9 C9.14947253 13.90269899 8.17016026 18.17394452 5 22 C0.62423085 24.88402967 -2.80099864 25.64987517 -8 25 C-12.33729795 22.74794145 -15.13397371 20.5613976 -17 16 C-17.54768238 11.07085861 -17.54281153 9.01075251 -15.1875 4.625 C-10.732063 -0.7215244 -6.56335915 -0.82808737 0 0 Z " fill="#F5F3F1" transform="translate(146,49)"/>
<path d="M0 0 C1.51400391 0.01740234 1.51400391 0.01740234 3.05859375 0.03515625 C4.07050781 0.04417969 5.08242187 0.05320312 6.125 0.0625 C6.90746094 0.07410156 7.68992188 0.08570312 8.49609375 0.09765625 C9.81236067 3.71739027 10.49609375 6.19332756 10.49609375 10.09765625 C15.53121274 11.10468005 18.73556413 11.07153438 23.49609375 9.09765625 C24.5080092 10.00115219 25.50528301 10.92106472 26.49609375 11.84765625 C27.05296875 12.358125 27.60984375 12.86859375 28.18359375 13.39453125 C29.49609375 15.09765625 29.49609375 15.09765625 29.49609375 19.09765625 C28.50609375 19.75765625 27.51609375 20.41765625 26.49609375 21.09765625 C26.99109375 24.56265625 26.99109375 24.56265625 27.49609375 28.09765625 C30.13609375 29.08765625 32.77609375 30.07765625 35.49609375 31.09765625 C35.49609375 34.72765625 35.49609375 38.35765625 35.49609375 42.09765625 C33.21744792 42.78125 30.93880208 43.46484375 28.66015625 44.1484375 C26.16424746 45.0113381 26.16424746 45.0113381 24.49609375 48.09765625 C24.87540922 51.13217998 25.74650056 52.47326646 27.49609375 55.09765625 C27.49609375 56.97265625 27.49609375 56.97265625 26.49609375 59.09765625 C24.59549727 60.94033982 22.60547752 62.48195805 20.49609375 64.09765625 C19.93921875 63.80890625 19.38234375 63.52015625 18.80859375 63.22265625 C18.04546875 62.85140625 17.28234375 62.48015625 16.49609375 62.09765625 C15.67109375 61.68515625 14.84609375 61.27265625 13.99609375 60.84765625 C11.5665357 59.90550628 11.5665357 59.90550628 9.30859375 60.53515625 C6.56468309 62.90059647 6.26223332 65.6500282 5.49609375 69.09765625 C1.53609375 69.09765625 -2.42390625 69.09765625 -6.50390625 69.09765625 C-8.50390625 63.47265625 -8.50390625 63.47265625 -8.50390625 60.09765625 C-13.78590218 58.8977758 -13.78590218 58.8977758 -18.50390625 61.09765625 C-22.50390625 61.09765625 -22.50390625 61.09765625 -25.31640625 58.41015625 C-27.50390625 55.09765625 -27.50390625 55.09765625 -27.44140625 52.34765625 C-26.50390625 50.09765625 -26.50390625 50.09765625 -24.50390625 48.09765625 C-24.48014699 46.10449955 -24.48014699 46.10449955 -24.87890625 43.97265625 C-25.08515625 42.69390625 -25.29140625 41.41515625 -25.50390625 40.09765625 C-27.17453125 39.91203125 -27.17453125 39.91203125 -28.87890625 39.72265625 C-32.50390625 39.09765625 -32.50390625 39.09765625 -34.50390625 37.09765625 C-34.69921875 34.93359375 -34.69921875 34.93359375 -34.62890625 32.47265625 C-34.61085938 31.65539062 -34.5928125 30.838125 -34.57421875 29.99609375 C-34.55101563 29.36960937 -34.5278125 28.743125 -34.50390625 28.09765625 C-31.1707915 26.31516445 -28.25909682 25.60972769 -24.50390625 25.09765625 C-23.38732124 20.40799919 -23.69771102 17.56002094 -25.50390625 13.09765625 C-23.64846658 10.89790819 -21.78521018 8.86121744 -19.50390625 7.09765625 C-16.55105628 7.09765625 -15.04792504 7.79164568 -12.50390625 9.22265625 C-9.85412848 10.38193403 -8.23453303 9.85616369 -5.50390625 9.09765625 C-5.37113281 8.53175781 -5.23835938 7.96585938 -5.1015625 7.3828125 C-4.92496094 6.64933594 -4.74835938 5.91585938 -4.56640625 5.16015625 C-4.30537109 4.06380859 -4.30537109 4.06380859 -4.0390625 2.9453125 C-3.22478857 0.13398719 -3.01207255 0.11747553 0 0 Z M-1.50390625 2.09765625 C-3.44900625 5.01530625 -3.95666942 6.7230291 -4.50390625 10.09765625 C-7.69140625 11.28515625 -7.69140625 11.28515625 -11.50390625 12.09765625 C-14.19140625 10.66015625 -14.19140625 10.66015625 -16.50390625 9.09765625 C-19.08846141 9.24968891 -20.22868515 9.89835821 -22.31640625 11.41015625 C-23.72638981 13.00635856 -23.72638981 13.00635856 -23.25390625 14.91015625 C-23.00640625 15.63203125 -22.75890625 16.35390625 -22.50390625 17.09765625 C-21.46609044 21.53196018 -21.45251155 23.99486684 -23.50390625 28.09765625 C-26.47390625 28.09765625 -29.44390625 28.09765625 -32.50390625 28.09765625 C-32.50390625 31.06765625 -32.50390625 34.03765625 -32.50390625 37.09765625 C-28.11136852 38.66037814 -28.11136852 38.66037814 -23.50390625 39.09765625 C-22.91167718 42.11029977 -22.44567194 45.02182602 -22.50390625 48.09765625 C-24.44140625 50.66015625 -24.44140625 50.66015625 -26.50390625 52.09765625 C-25.22822536 54.94340593 -24.08894336 57.27855606 -21.50390625 59.09765625 C-19.00484454 58.84134223 -16.87300196 58.2245329 -14.50390625 57.41015625 C-11.73403273 56.97736351 -9.99281608 57.92233772 -7.50390625 59.09765625 C-7.35953125 60.23203125 -7.21515625 61.36640625 -7.06640625 62.53515625 C-6.89219147 65.90542826 -6.89219147 65.90542826 -5.50390625 67.09765625 C-3.81781659 67.16971136 -2.12889966 67.18151693 -0.44140625 67.16015625 C0.47769531 67.15113281 1.39679688 67.14210938 2.34375 67.1328125 C3.05402344 67.12121094 3.76429688 67.10960938 4.49609375 67.09765625 C4.72296875 65.98390625 4.94984375 64.87015625 5.18359375 63.72265625 C6.49609375 60.09765625 6.49609375 60.09765625 8.87109375 58.59765625 C11.58441942 58.08083231 12.96341371 58.04965072 15.49609375 59.09765625 C16.15609375 59.75765625 16.81609375 60.41765625 17.49609375 61.09765625 C20.86548808 60.76071682 22.92519958 59.20946217 25.49609375 57.09765625 C25.18671875 56.35515625 24.87734375 55.61265625 24.55859375 54.84765625 C24.20796875 53.94015625 23.85734375 53.03265625 23.49609375 52.09765625 C23.22796875 51.43765625 22.95984375 50.77765625 22.68359375 50.09765625 C22.49609375 48.09765625 22.49609375 48.09765625 23.37109375 45.53515625 C26.44788616 42.00589437 30.05671231 41.24240241 34.49609375 40.09765625 C34.49609375 37.45765625 34.49609375 34.81765625 34.49609375 32.09765625 C31.85609375 31.43765625 29.21609375 30.77765625 26.49609375 30.09765625 C25.53287386 27.11037295 24.73738454 24.23443647 24.49609375 21.09765625 C26.37109375 18.03515625 26.37109375 18.03515625 28.49609375 16.09765625 C26.66891227 13.26564833 26.66891227 13.26564833 23.49609375 11.09765625 C20.80723271 11.34091347 18.46947104 11.96126839 15.8984375 12.77734375 C13.49609375 13.09765625 13.49609375 13.09765625 11.23046875 11.89453125 C8.68574737 9.2581082 8.82532893 6.65339621 8.49609375 3.09765625 C6.90741509 1.50897759 5.24919859 1.88971586 3.05859375 1.84765625 C2.25550781 1.821875 1.45242187 1.79609375 0.625 1.76953125 C-0.42880859 1.93195312 -0.42880859 1.93195312 -1.50390625 2.09765625 Z " fill="#325C6E" transform="translate(140.50390625,25.90234375)"/>
<path d="M0 0 C0.99 0.33 1.98 0.66 3 1 C2.34 1.33 1.68 1.66 1 2 C0.00761278 5.00197133 -0.34508965 7.85644894 0 11 C1.26857375 12.56358797 1.26857375 12.56358797 3 13.6875 C3.99 14.450625 4.98 15.21375 6 16 C6.22089973 21.08069376 3.59747656 24.81052168 1 29 C-0.216875 28.855625 -1.43375 28.71125 -2.6875 28.5625 C-3.4196875 28.47613281 -4.151875 28.38976562 -4.90625 28.30078125 C-7 28 -7 28 -9.6875 27.25 C-12.90235461 26.90244815 -14.38360071 28.23216264 -17 30 C-17.66 30 -18.32 30 -19 30 C-18.505 31.485 -18.505 31.485 -18 33 C-17.87218214 35.67394964 -17.95608129 38.32095857 -18 41 C-22.873261 42.5912689 -26.80790596 43.21192221 -32 43 C-32.99 40.03 -33.98 37.06 -35 34 C-40.74182842 33.22829922 -40.74182842 33.22829922 -45.79296875 35.37109375 C-46.29441406 35.92925781 -46.79585937 36.48742187 -47.3125 37.0625 C-48.6428125 38.5165625 -48.6428125 38.5165625 -50 40 C-53.48003024 39.76751364 -55.94052549 37.87934267 -58.75 35.9375 C-59.54921875 35.38964844 -60.3484375 34.84179688 -61.171875 34.27734375 C-61.77515625 33.85582031 -62.3784375 33.43429688 -63 33 C-62.05240175 27.1790393 -62.05240175 27.1790393 -61.25 24.4375 C-60.83552518 21.91621925 -60.83552518 21.91621925 -61.8125 19.25 C-65.23868475 15.72592426 -69.26349243 16.09775156 -74 16 C-74.53394179 14.5882217 -75.05165104 13.17029756 -75.5625 11.75 C-75.85253906 10.96109375 -76.14257812 10.1721875 -76.44140625 9.359375 C-77 7 -77 7 -76 3 C-75.01 6.96 -74.02 10.92 -73 15 C-71.2675 14.87625 -69.535 14.7525 -67.75 14.625 C-62.39078774 14.6180938 -62.39078774 14.6180938 -59.25 17.6875 C-57.87844241 21.32212762 -57.77192471 22.40349379 -59 26 C-59.5259375 27.8871875 -59.5259375 27.8871875 -60.0625 29.8125 C-60.371875 30.864375 -60.68125 31.91625 -61 33 C-60.236875 33.28875 -59.47375 33.5775 -58.6875 33.875 C-56 35 -56 35 -53 37 C-50.98775876 36.97733657 -50.98775876 36.97733657 -49 36 C-48.1028125 34.9790625 -48.1028125 34.9790625 -47.1875 33.9375 C-45 32 -45 32 -41.5 31.6875 C-39.7675 31.8421875 -39.7675 31.8421875 -38 32 C-37.2575 32.020625 -36.515 32.04125 -35.75 32.0625 C-32.6805187 33.70686498 -32.13654623 36.87449787 -31 40 C-27.37 40 -23.74 40 -20 40 C-20 36.04 -20 32.08 -20 28 C-14.64411074 24.56673766 -10.96886438 24.89181011 -5 26 C-3.989375 26.185625 -2.97875 26.37125 -1.9375 26.5625 C-0.9784375 26.7790625 -0.9784375 26.7790625 0 27 C0.70710678 25.35008418 1.36562656 23.6792238 2 22 C2.33 21.195625 2.66 20.39125 3 19.5625 C3.29975497 16.99254611 3.29975497 16.99254611 1.6875 15.66796875 C1.130625 15.20003906 0.57375 14.73210937 0 14.25 C-2.13829333 12.34929481 -2.93814667 11.5721433 -3.25 8.6875 C-2.62857143 2.62857143 -2.62857143 2.62857143 0 0 Z " fill="#2B576A" transform="translate(113,104)"/>
<path d="M0 0 C5.94452062 3.36780826 8.76189883 8.20348516 11.7421875 14.1640625 C12.30954642 18.81454544 12.2020506 22.26136827 10.0546875 26.4765625 C5.02365908 32.32343337 0.59880056 34.72150035 -7.0703125 35.6015625 C-12.20047631 35.45386105 -16.22125942 33.20736925 -20.2578125 30.1640625 C-24.7653661 24.64230935 -25.84603998 20.22279232 -25.2578125 13.1640625 C-23.29847506 7.27485396 -20.2901077 3.69737615 -15.2578125 0.1640625 C-10.25459352 -1.50367716 -5.01168871 -1.85553873 0 0 Z M-19.65625 6.73828125 C-22.65388607 11.29851485 -23.05576002 15.83143764 -22.2578125 21.1640625 C-20.33718102 26.52161346 -17.34106818 29.62243466 -12.2578125 32.1640625 C-6.70250002 32.671359 -1.83951014 32.92666672 3.2421875 30.4765625 C4.4796875 29.331875 4.4796875 29.331875 5.7421875 28.1640625 C6.5259375 27.4628125 7.3096875 26.7615625 8.1171875 26.0390625 C10.54129211 21.75026203 10.60483655 17.97442754 9.7421875 13.1640625 C7.45942063 7.9886292 4.2325121 3.21553289 -1.0703125 0.9765625 C-8.78613187 -0.99021499 -14.3266558 0.73876599 -19.65625 6.73828125 Z " fill="#2E596C" transform="translate(85.2578125,85.8359375)"/>
<path d="M0 0 C0.33 2.97 0.66 5.94 1 9 C6.03511899 10.0070238 9.23947038 9.97387813 14 8 C15.01191545 8.90349594 16.00918926 9.82340847 17 10.75 C17.556875 11.26046875 18.11375 11.7709375 18.6875 12.296875 C20 14 20 14 20 18 C19.01 18.66 18.02 19.32 17 20 C17.33 22.31 17.66 24.62 18 27 C20.64 27.99 23.28 28.98 26 30 C26 33.63 26 37.26 26 41 C22.58203125 42.02539062 22.58203125 42.02539062 19.1640625 43.05078125 C16.66815371 43.91368185 16.66815371 43.91368185 15 47 C15.37931547 50.03452373 16.25040681 51.37561021 18 54 C18 55.875 18 55.875 17 58 C15.09940352 59.84268357 13.10938377 61.3843018 11 63 C7.125 61.25 7.125 61.25 6 59 C7.11375 59.0928125 7.11375 59.0928125 8.25 59.1875 C11.45383006 58.96905704 12.64031256 58.09749995 15 56 C14.5359375 54.88625 14.5359375 54.88625 14.0625 53.75 C13.711875 52.8425 13.36125 51.935 13 51 C12.566875 50.0409375 12.566875 50.0409375 12.125 49.0625 C12 47 12 47 13.4375 43.875 C16.83538046 40.06274387 19.04450351 39.82591608 24 39 C24.33 36.36 24.66 33.72 25 31 C23.1128125 30.9690625 23.1128125 30.9690625 21.1875 30.9375 C18.984375 30.671875 18.984375 30.671875 17 30 C15.01773547 26.81636303 13.90838637 24.60323849 14.125 20.8125 C15.1730615 18.64151546 16.47232296 16.85978075 18 15 C16.67619113 12.6688002 16.67619113 12.6688002 14 11 C11.61381311 11.28429988 11.61381311 11.28429988 9.0625 12 C4.34505772 13.16196587 4.34505772 13.16196587 0.9375 11.5625 C-1.47656535 8.36970389 -1.77205399 5.95106415 -2 2 C-4.97 1.67 -7.94 1.34 -11 1 C-11 0.67 -11 0.34 -11 0 C-6.79405774 -0.72795155 -4.19895255 -1.04973814 0 0 Z " fill="#225064" transform="translate(150,27)"/>
<path d="M0 0 C4.75618453 1.67347234 7.17341736 3.86107542 10 8 C10.433125 8.598125 10.86625 9.19625 11.3125 9.8125 C12.41088808 13.30737115 11.92850163 16.5331486 11 20 C8.22132829 25.07826209 5.51057931 28.16314023 0 30 C-5.72719196 30.54030113 -8.55882194 29.6516353 -13 26 C-17.30270236 21.23214063 -18.35663627 17.56518639 -18.28515625 11.28515625 C-17.74350709 6.94454308 -15.33236307 4.19062232 -12.1640625 1.359375 C-8.35547735 -1.03302145 -4.34568374 -0.50195398 0 0 Z M-14 6 C-16.283827 9.04510267 -16.42154114 12.20882729 -16.31640625 15.97265625 C-15.62529227 20.4009051 -13.05734298 23.14269488 -9.6875 25.875 C-5.11336017 27.78975621 -1.48732971 27.46661324 3.1875 26 C6.98834115 23.29717963 8.68041494 20.450526 10 16 C10 11.81240469 9.45108467 9.69995897 7.1875 6.1875 C3.73384072 2.73384072 0.92714458 1.699956 -3.9375 1.625 C-8.51002972 1.71927896 -10.86695964 2.4753296 -14 6 Z " fill="#204E62" transform="translate(145,47)"/>
<path d="M0 0 C2.71331116 2.71331116 2.76151341 4.8178026 3.0859375 8.5546875 C2.94005209 12.70579049 1.51261051 15.73289456 -1 19 C-5.93541877 23.51014459 -10.20743955 25.23055868 -16.9921875 25.16796875 C-19.58819391 24.95079312 -21.68055553 24.15972223 -24 23 C-24 22.67 -24 22.34 -24 22 C-23.13117188 21.90203125 -22.26234375 21.8040625 -21.3671875 21.703125 C-13.32925975 20.66017241 -8.20092158 19.63347855 -2.6875 13.375 C-0.47314905 8.94629811 -0.19351485 4.89592559 0 0 Z " fill="#F2F1F0" transform="translate(97,99)"/>
<path d="M0 0 C0.99 0.33 1.98 0.66 3 1 C2.01 1.495 2.01 1.495 1 2 C0.00761278 5.00197133 -0.34508965 7.85644894 0 11 C1.26857375 12.56358797 1.26857375 12.56358797 3 13.6875 C3.99 14.450625 4.98 15.21375 6 16 C6.22089973 21.08069376 3.59747656 24.81052168 1 29 C-0.216875 28.855625 -1.43375 28.71125 -2.6875 28.5625 C-3.4196875 28.47613281 -4.151875 28.38976562 -4.90625 28.30078125 C-7 28 -7 28 -9.6875 27.25 C-12.90235461 26.90244815 -14.38360071 28.23216264 -17 30 C-17.66 30 -18.32 30 -19 30 C-18.67 30.99 -18.34 31.98 -18 33 C-17.87218214 35.67394964 -17.95608129 38.32095857 -18 41 C-19.32 40.67 -20.64 40.34 -22 40 C-21.34 40 -20.68 40 -20 40 C-20 36.04 -20 32.08 -20 28 C-14.64411074 24.56673766 -10.96886438 24.89181011 -5 26 C-3.989375 26.185625 -2.97875 26.37125 -1.9375 26.5625 C-0.9784375 26.7790625 -0.9784375 26.7790625 0 27 C0.70710678 25.35008418 1.36562656 23.6792238 2 22 C2.33 21.195625 2.66 20.39125 3 19.5625 C3.29975497 16.99254611 3.29975497 16.99254611 1.6875 15.66796875 C1.130625 15.20003906 0.57375 14.73210937 0 14.25 C-2.13829333 12.34929481 -2.93814667 11.5721433 -3.25 8.6875 C-2.62857143 2.62857143 -2.62857143 2.62857143 0 0 Z " fill="#215064" transform="translate(113,104)"/>
<path d="M0 0 C1.32 0 2.64 0 4 0 C3.40895235 4.84659077 2.02055843 8.60748167 0 13 C0.99 13.33 1.98 13.66 3 14 C4.06565287 18.26261149 4.26931483 21.99836937 3.14453125 26.23046875 C1.06962692 29.43842664 -2.32766724 29.81930136 -5.8828125 30.625 C-6.58148438 30.74875 -7.28015625 30.8725 -8 31 C-7 29 -7 29 -5.15234375 28.3671875 C-4.05599609 28.12355469 -4.05599609 28.12355469 -2.9375 27.875 C-2.20402344 27.70742187 -1.47054687 27.53984375 -0.71484375 27.3671875 C-0.14894531 27.24601562 0.41695312 27.12484375 1 27 C1.35669651 23.59817216 1.53766516 20.38781251 1 17 C-0.31344394 15.37361702 -0.31344394 15.37361702 -2.0625 14.25 C-3.031875 13.5075 -4.00125 12.765 -5 12 C-5.20853567 7.09941183 -3.08603271 3.70323925 0 0 Z " fill="#8AA0A9" transform="translate(45,76)"/>
<path d="M0 0 C2.72226766 2.72226766 3.78896139 5.36688418 5 9 C8.3 9.33 11.6 9.66 15 10 C18.42857143 18.42857143 18.42857143 18.42857143 18 23 C15.42786866 24.61949011 14.32330841 25.04408751 11.25 24.625 C10.5075 24.41875 9.765 24.2125 9 24 C11.64738916 22.5393715 12.89448334 22 16 22 C15.34 19.03 14.68 16.06 14 13 C13.33613281 12.93683594 12.67226562 12.87367187 11.98828125 12.80859375 C4.97742084 11.83628464 4.97742084 11.83628464 2.1875 9.44921875 C0.81467328 7.6278833 -0.24914382 6.15700502 -1 4 C-0.61328125 1.7734375 -0.61328125 1.7734375 0 0 Z " fill="#3D6577" transform="translate(105,80)"/>
<path d="M0 0 C1.28197266 -0.03867188 1.28197266 -0.03867188 2.58984375 -0.078125 C5.52394478 0.31123438 6.86950201 1.31649829 9.0625 3.25 C8.27746094 3.13140625 7.49242188 3.0128125 6.68359375 2.890625 C-1.28016777 1.79285043 -1.28016777 1.79285043 -8.4765625 4.67578125 C-11.55561852 7.9935876 -13.17666005 12.13477855 -14.9375 16.25 C-15.59511201 17.58782236 -16.25857338 18.92286743 -16.9375 20.25 C-17.31247746 15.56278181 -17.42209497 12.20124198 -15.25 7.9375 C-10.69702334 2.64620281 -7.01983372 0.12667369 0 0 Z " fill="#1D4D62" transform="translate(77.9375,84.75)"/>
<path d="M0 0 C0.99 0.33 1.98 0.66 3 1 C2.21625 1.5775 1.4325 2.155 0.625 2.75 C-3.28870924 6.10460792 -3.87602181 7.71889205 -4.375 12.875 C-4.30293084 17.17512653 -2.49633697 19.53733903 0 23 C-0.33 23.99 -0.66 24.98 -1 26 C-5.58436293 20.71035047 -7.35852996 17.39789968 -7.2890625 10.2890625 C-6.84466358 6.76990349 -5.26573627 4.6541482 -3 2 C-2.01 1.34 -1.02 0.68 0 0 Z " fill="#1B4A5E" transform="translate(134,48)"/>
<path d="M0 0 C3.35806998 1.3895462 5.32052848 2.72945019 7 6 C6.76147854 10.37289352 5.80753798 14.02341645 4 18 C3.01 18 2.02 18 1 18 C1.92282958 11.27652733 1.92282958 11.27652733 2.75 8.3125 C3.25978544 5.89024064 3.25978544 5.89024064 1.5625 3.8125 C0.7890625 2.9153125 0.7890625 2.9153125 0 2 C0 1.34 0 0.68 0 0 Z " fill="#F3F2F0" transform="translate(51,119)"/>
<path d="M0 0 C6.03653699 -0.3221077 10.83245145 -0.56806924 16 3 C18.25 5.4375 18.25 5.4375 20 8 C20.433125 8.598125 20.86625 9.19625 21.3125 9.8125 C22.41595571 13.32349544 21.60054214 16.39674718 21 20 C20.34 19.67 19.68 19.34 19 19 C19.0825 17.80375 19.165 16.6075 19.25 15.375 C19.25 10.89592759 17.94720046 8.43840054 15 5 C11.39654272 2.79535314 8.155502 2.61830578 4.0234375 2.34375 C2 2 2 2 0 0 Z " fill="#396173" transform="translate(135,47)"/>
<path d="M0 0 C3.16115776 1.36983503 3.9927092 1.9890638 6 5 C5.67668203 8.29784333 4.68704791 11.1517373 3 14 C0.56835159 15.42025482 -1.14712577 15.62320529 -4 16 C-3.34 15.01 -2.68 14.02 -2 13 C-1.34 13 -0.68 13 0 13 C-0.020625 12.113125 -0.04125 11.22625 -0.0625 10.3125 C0 7 0 7 0.5625 4.25 C1.24197896 1.97586562 1.24197896 1.97586562 0 0 Z " fill="#F0EFEF" transform="translate(47,91)"/>
<path d="M0 0 C0.33 4.29 0.66 8.58 1 13 C0.01 13 -0.98 13 -2 13 C-2.99 9.04 -3.98 5.08 -5 1 C-3 0 -3 0 0 0 Z " fill="#F2F0EF" transform="translate(42,106)"/>
<path d="M0 0 C0.99 0.33 1.98 0.66 3 1 C2.01 1.495 2.01 1.495 1 2 C0.00657701 5.00510454 -0.33658019 7.8532423 0 11 C1.77002583 13.36544736 3.4526119 14.38838712 6 16 C5.34 16.99 4.68 17.98 4 19 C-2.77145003 12.80268788 -2.77145003 12.80268788 -3.3125 8.53515625 C-2.92608493 4.80987342 -2.70000304 2.70000304 0 0 Z " fill="#29566A" transform="translate(113,104)"/>
<path d="M0 0 C0.66 0.99 1.32 1.98 2 3 C4.10935089 3.28856847 4.10935089 3.28856847 6.4375 3.0625 C10.12193891 2.82577328 10.7487642 2.83250947 14 5 C7.565 5.495 7.565 5.495 1 6 C0.34 4.35 -0.32 2.7 -1 1 C-0.67 0.67 -0.34 0.34 0 0 Z " fill="#355E71" transform="translate(80,141)"/>
<path d="M0 0 C-1.44253657 3.36591866 -3.33264727 5.51047079 -6 8 C-6.99 7.67 -7.98 7.34 -9 7 C-8.07347299 5.82460004 -7.13336613 4.65989423 -6.1875 3.5 C-5.66542969 2.8503125 -5.14335938 2.200625 -4.60546875 1.53125 C-3 0 -3 0 0 0 Z " fill="#F5F3F2" transform="translate(99,68)"/>
<path d="M0 0 C1.95040379 1.95040379 2.85113961 3.43385548 4.0625 5.875 C4.40410156 6.55304688 4.74570313 7.23109375 5.09765625 7.9296875 C5.97466302 9.94186755 6.53437043 11.85906403 7 14 C3.2717568 11.35098509 1.19859071 9.46747448 0 5 C-0.125 2.1875 -0.125 2.1875 0 0 Z " fill="#124358" transform="translate(127,60)"/>
<path d="M0 0 C2.36120297 0.25392418 4.7150539 0.57798123 7.0625 0.9375 C8.35285156 1.13214844 9.64320312 1.32679687 10.97265625 1.52734375 C11.97167969 1.68332031 12.97070312 1.83929688 14 2 C14 2.33 14 2.66 14 3 C12.02 3 10.04 3 8 3 C8 3.66 8 4.32 8 5 C4.17902761 4.46930939 1.93828597 3.50298434 -1 1 C-0.67 0.67 -0.34 0.34 0 0 Z " fill="#3B6374" transform="translate(69,116)"/>
<path d="M0 0 C2.05078125 0.03255208 4.1015625 0.06510417 6.15234375 0.09765625 C6.15234375 0.42765625 6.15234375 0.75765625 6.15234375 1.09765625 C3.84234375 1.09765625 1.53234375 1.09765625 -0.84765625 1.09765625 C-0.96882812 1.73574219 -1.09 2.37382812 -1.21484375 3.03125 C-1.38242188 3.85753906 -1.55 4.68382812 -1.72265625 5.53515625 C-1.88507813 6.35886719 -2.0475 7.18257812 -2.21484375 8.03125 C-2.42367187 8.71316406 -2.6325 9.39507812 -2.84765625 10.09765625 C-3.83765625 10.59265625 -3.83765625 10.59265625 -4.84765625 11.09765625 C-5.50765625 10.43765625 -6.16765625 9.77765625 -6.84765625 9.09765625 C-6.18765625 9.09765625 -5.52765625 9.09765625 -4.84765625 9.09765625 C-4.64849609 8.24880859 -4.64849609 8.24880859 -4.4453125 7.3828125 C-4.18041016 6.28259766 -4.18041016 6.28259766 -3.91015625 5.16015625 C-3.73613281 4.42925781 -3.56210938 3.69835937 -3.3828125 2.9453125 C-2.68509143 0.53639231 -2.53456453 0.13396218 0 0 Z " fill="#466B7B" transform="translate(139.84765625,25.90234375)"/>
<path d="M0 0 C2 3 2 3 3 6 C6.51190809 7.22969878 6.51190809 7.22969878 10 8 C9.67 8.66 9.34 9.32 9 10 C5.625 9.75 5.625 9.75 2 9 C-0.30634419 6.19227664 -0.19642641 3.53567531 0 0 Z " fill="#305B6D" transform="translate(165,48)"/>
<path d="M0 0 C0.66 0 1.32 0 2 0 C2.02687279 1.81242052 2.04633715 3.62495233 2.0625 5.4375 C2.07410156 6.44683594 2.08570313 7.45617187 2.09765625 8.49609375 C2 11 2 11 1 12 C-1.33297433 12.04092937 -3.66705225 12.04241723 -6 12 C-4 10 -4 10 0 9 C0 6.03 0 3.06 0 0 Z " fill="#0E4056" transform="translate(174,57)"/>
<path d="M0 0 C0 2.31 0 4.62 0 7 C-0.33 7 -0.66 7 -1 7 C-1.33 5.35 -1.66 3.7 -2 2 C-4.97 1.67 -7.94 1.34 -11 1 C-11 0.67 -11 0.34 -11 0 C-3.57142857 -1.28571429 -3.57142857 -1.28571429 0 0 Z " fill="#0F4156" transform="translate(150,27)"/>
<path d="M0 0 C0.99 0.33 1.98 0.66 3 1 C4.1875 4.0625 4.1875 4.0625 5 7 C3.68 6.67 2.36 6.34 1 6 C0.67 4.02 0.34 2.04 0 0 Z " fill="#F0EFEF" transform="translate(80,138)"/>
<path d="M0 0 C0.04125 0.61875 0.0825 1.2375 0.125 1.875 C0.41375 2.57625 0.7025 3.2775 1 4 C3.99615946 5.3045656 3.99615946 5.3045656 7 6 C7 6.66 7 7.32 7 8 C3.64404172 7.40072174 1.62198774 6.15377564 -1 4 C-0.67 2.68 -0.34 1.36 0 0 Z " fill="#3A6274" transform="translate(150,32)"/>
<path d="M0 0 C2.62187494 1.04874998 3.79371361 1.64931313 5.25 4.125 C5.4975 4.74375 5.745 5.3625 6 6 C5.01 6 4.02 6 3 6 C0 2.66666667 0 2.66666667 0 0 Z " fill="#ECECEC" transform="translate(51,119)"/>
<path d="M0 0 C2.62187494 1.04874998 3.79371361 1.64931313 5.25 4.125 C5.4975 4.74375 5.745 5.3625 6 6 C4.125 5.8125 4.125 5.8125 2 5 C0.75 2.4375 0.75 2.4375 0 0 Z " fill="#104257" transform="translate(63,111)"/>
</svg>
