<?xml version="1.0" encoding="UTF-8"?>
<svg version="1.1" xmlns="http://www.w3.org/2000/svg" width="77" height="92">
<path d="M0 0 C6.37128298 5.93433694 10.89245606 12.80425891 11.78515625 21.5859375 C11.93896175 35.64376064 9.7617832 50.44635951 -0.17578125 61.09375 C-6.4735867 65.78464117 -14.79514699 67.94343653 -22.55078125 68.28125 C-23.47761719 68.3328125 -24.40445313 68.384375 -25.359375 68.4375 C-37.32102874 68.80320661 -46.68358391 65.70629379 -55.4921875 57.46484375 C-64.21359963 48.14065583 -66.36992322 39.37459247 -66.17578125 26.78125 C-66.19511719 25.52699219 -66.21445313 24.27273437 -66.234375 22.98046875 C-66.18865795 14.24851291 -64.88529061 7.02173282 -58.84082031 0.41113281 C-42.83245652 -14.62170606 -16.57424264 -12.96904241 0 0 Z M-10.55078125 15.28125 C-10.55078125 19.57125 -10.55078125 23.86125 -10.55078125 28.28125 C-9.89078125 27.95125 -9.23078125 27.62125 -8.55078125 27.28125 C-7.45306872 22.99019191 -7.6276638 19.58913144 -8.55078125 15.28125 C-9.21078125 15.28125 -9.87078125 15.28125 -10.55078125 15.28125 Z M-51.55078125 20.28125 C-52.21078125 21.60125 -52.87078125 22.92125 -53.55078125 24.28125 C-52.56078125 25.60125 -51.57078125 26.92125 -50.55078125 28.28125 C-47.08578125 27.78625 -47.08578125 27.78625 -43.55078125 27.28125 C-42.85918724 25.43399948 -42.85918724 25.43399948 -42.55078125 23.28125 C-43.21078125 22.29125 -43.87078125 21.30125 -44.55078125 20.28125 C-48.13435366 20.03109127 -48.13435366 20.03109127 -51.55078125 20.28125 Z M-5.55078125 20.28125 C-4.89078125 20.94125 -4.23078125 21.60125 -3.55078125 22.28125 C-3.15313862 24.26946313 -2.81302776 26.27069339 -2.55078125 28.28125 C-1.89078125 27.95125 -1.23078125 27.62125 -0.55078125 27.28125 C-0.88078125 25.30125 -1.21078125 23.32125 -1.55078125 21.28125 C-2.87078125 20.95125 -4.19078125 20.62125 -5.55078125 20.28125 Z M-37.55078125 23.28125 C-37.55078125 23.61125 -37.55078125 23.94125 -37.55078125 24.28125 C-30.29078125 24.28125 -23.03078125 24.28125 -15.55078125 24.28125 C-15.55078125 23.95125 -15.55078125 23.62125 -15.55078125 23.28125 C-22.81078125 23.28125 -30.07078125 23.28125 -37.55078125 23.28125 Z M-21.55078125 43.28125 C-25.51078125 44.93125 -29.47078125 46.58125 -33.55078125 48.28125 C-29.20499985 49.36769535 -28.60117577 49.18805911 -24.80078125 47.34375 C-24.0015625 46.96347656 -23.20234375 46.58320312 -22.37890625 46.19140625 C-21.775625 45.89105469 -21.17234375 45.59070312 -20.55078125 45.28125 C-20.88078125 44.62125 -21.21078125 43.96125 -21.55078125 43.28125 Z " fill="#CDDBE3" transform="translate(65.55078125,16.71875)"/>
<path d="M0 0 C1.2065625 0.0309375 1.2065625 0.0309375 2.4375 0.0625 C2.81968767 1.71864657 3.15145102 3.38707024 3.4375 5.0625 C2.4375 6.0625 2.4375 6.0625 -0.125 6.125 C-1.3315625 6.0940625 -1.3315625 6.0940625 -2.5625 6.0625 C-2.94468767 4.40635343 -3.27645102 2.73792976 -3.5625 1.0625 C-2.5625 0.0625 -2.5625 0.0625 0 0 Z " fill="#C2D3DC" transform="translate(17.5625,37.9375)"/>
</svg>
